<svg xmlns="http://www.w3.org/2000/svg" width="98" height="182" viewBox="0 0 98 182">
    <g fill="none" fill-opacity=".14" fill-rule="evenodd">
        <g fill="#21272E">
            <g>
                <g>
                    <g transform="translate(-50 -2495) translate(50 2442) translate(0 53)">
                        <rect width="2" height="2" y="36" rx="1"/>
                        <rect width="2" height="2" y="48" rx="1"/>
                        <rect width="2" height="2" y="60" rx="1"/>
                        <rect width="2" height="2" x="12" y="24" rx="1"/>
                        <rect width="2" height="2" x="12" y="36" rx="1"/>
                        <rect width="2" height="2" x="12" y="48" rx="1"/>
                        <rect width="2" height="2" x="12" y="60" rx="1"/>
                        <rect width="2" height="2" x="24" y="12" rx="1"/>
                        <rect width="2" height="2" x="24" y="24" rx="1"/>
                        <rect width="2" height="2" x="24" y="36" rx="1"/>
                        <rect width="2" height="2" x="24" y="48" rx="1"/>
                        <rect width="2" height="2" x="24" y="60" rx="1"/>
                        <rect width="2" height="2" x="36" rx="1"/>
                        <rect width="2" height="2" x="36" y="12" rx="1"/>
                        <rect width="2" height="2" x="36" y="24" rx="1"/>
                        <rect width="2" height="2" x="36" y="36" rx="1"/>
                        <rect width="2" height="2" x="36" y="48" rx="1"/>
                        <rect width="2" height="2" x="36" y="60" rx="1"/>
                        <rect width="2" height="2" x="48" rx="1"/>
                        <rect width="2" height="2" x="60" rx="1"/>
                        <rect width="2" height="2" x="48" y="12" rx="1"/>
                        <rect width="2" height="2" x="60" y="12" rx="1"/>
                        <rect width="2" height="2" x="48" y="24" rx="1"/>
                        <rect width="2" height="2" x="60" y="24" rx="1"/>
                        <rect width="2" height="2" x="48" y="36" rx="1"/>
                        <rect width="2" height="2" x="60" y="36" rx="1"/>
                        <rect width="2" height="2" x="48" y="48" rx="1"/>
                        <rect width="2" height="2" x="48" y="60" rx="1"/>
                        <rect width="2" height="2" x="60" y="48" rx="1"/>
                        <rect width="2" height="2" x="60" y="60" rx="1"/>
                        <rect width="2" height="2" x="72" rx="1"/>
                        <rect width="2" height="2" x="72" y="12" rx="1"/>
                        <rect width="2" height="2" x="72" y="24" rx="1"/>
                        <rect width="2" height="2" x="72" y="36" rx="1"/>
                        <rect width="2" height="2" x="72" y="48" rx="1"/>
                        <rect width="2" height="2" x="72" y="60" rx="1"/>
                        <rect width="2" height="2" y="72" rx="1"/>
                        <rect width="2" height="2" x="12" y="72" rx="1"/>
                        <rect width="2" height="2" x="24" y="72" rx="1"/>
                        <rect width="2" height="2" x="36" y="72" rx="1"/>
                        <rect width="2" height="2" x="48" y="72" rx="1"/>
                        <rect width="2" height="2" x="60" y="72" rx="1"/>
                        <rect width="2" height="2" x="72" y="72" rx="1"/>
                        <rect width="2" height="2" x="84" rx="1"/>
                        <rect width="2" height="2" x="84" y="12" rx="1"/>
                        <rect width="2" height="2" x="84" y="24" rx="1"/>
                        <rect width="2" height="2" x="84" y="36" rx="1"/>
                        <rect width="2" height="2" x="84" y="48" rx="1"/>
                        <rect width="2" height="2" x="84" y="60" rx="1"/>
                        <rect width="2" height="2" x="84" y="72" rx="1"/>
                        <rect width="2" height="2" y="84" rx="1"/>
                        <rect width="2" height="2" x="12" y="84" rx="1"/>
                        <rect width="2" height="2" x="24" y="84" rx="1"/>
                        <rect width="2" height="2" x="36" y="84" rx="1"/>
                        <rect width="2" height="2" x="48" y="84" rx="1"/>
                        <rect width="2" height="2" x="60" y="84" rx="1"/>
                        <rect width="2" height="2" x="72" y="84" rx="1"/>
                        <rect width="2" height="2" x="84" y="84" rx="1"/>
                        <rect width="2" height="2" x="96" rx="1"/>
                        <rect width="2" height="2" x="96" y="12" rx="1"/>
                        <rect width="2" height="2" x="96" y="24" rx="1"/>
                        <rect width="2" height="2" x="96" y="36" rx="1"/>
                        <rect width="2" height="2" x="96" y="48" rx="1"/>
                        <rect width="2" height="2" x="96" y="60" rx="1"/>
                        <rect width="2" height="2" x="96" y="72" rx="1"/>
                        <rect width="2" height="2" x="96" y="84" rx="1"/>
                    </g>
                    <g transform="translate(-50 -2495) translate(50 2442) translate(0 53) translate(0 96)">
                        <rect width="2" height="2" rx="1"/>
                        <rect width="2" height="2" y="12" rx="1"/>
                        <rect width="2" height="2" y="24" rx="1"/>
                        <rect width="2" height="2" y="36" rx="1"/>
                        <rect width="2" height="2" y="48" rx="1"/>
                        <rect width="2" height="2" y="60" rx="1"/>
                        <rect width="2" height="2" x="12" rx="1"/>
                        <rect width="2" height="2" x="12" y="12" rx="1"/>
                        <rect width="2" height="2" x="12" y="24" rx="1"/>
                        <rect width="2" height="2" x="12" y="36" rx="1"/>
                        <rect width="2" height="2" x="12" y="48" rx="1"/>
                        <rect width="2" height="2" x="12" y="60" rx="1"/>
                        <rect width="2" height="2" x="24" rx="1"/>
                        <rect width="2" height="2" x="24" y="12" rx="1"/>
                        <rect width="2" height="2" x="24" y="24" rx="1"/>
                        <rect width="2" height="2" x="24" y="36" rx="1"/>
                        <rect width="2" height="2" x="24" y="48" rx="1"/>
                        <rect width="2" height="2" x="24" y="60" rx="1"/>
                        <rect width="2" height="2" x="36" rx="1"/>
                        <rect width="2" height="2" x="36" y="12" rx="1"/>
                        <rect width="2" height="2" x="36" y="24" rx="1"/>
                        <rect width="2" height="2" x="36" y="36" rx="1"/>
                        <rect width="2" height="2" x="36" y="48" rx="1"/>
                        <rect width="2" height="2" x="36" y="60" rx="1"/>
                        <rect width="2" height="2" x="48" rx="1"/>
                        <rect width="2" height="2" x="60" rx="1"/>
                        <rect width="2" height="2" x="48" y="12" rx="1"/>
                        <rect width="2" height="2" x="60" y="12" rx="1"/>
                        <rect width="2" height="2" x="48" y="24" rx="1"/>
                        <rect width="2" height="2" x="60" y="24" rx="1"/>
                        <rect width="2" height="2" x="48" y="36" rx="1"/>
                        <rect width="2" height="2" x="60" y="36" rx="1"/>
                        <rect width="2" height="2" x="48" y="48" rx="1"/>
                        <rect width="2" height="2" x="48" y="60" rx="1"/>
                        <rect width="2" height="2" x="60" y="48" rx="1"/>
                        <rect width="2" height="2" x="60" y="60" rx="1"/>
                        <rect width="2" height="2" x="72" rx="1"/>
                        <rect width="2" height="2" x="72" y="12" rx="1"/>
                        <rect width="2" height="2" x="72" y="24" rx="1"/>
                        <rect width="2" height="2" x="72" y="36" rx="1"/>
                        <rect width="2" height="2" x="72" y="48" rx="1"/>
                        <rect width="2" height="2" x="72" y="60" rx="1"/>
                        <rect width="2" height="2" y="72" rx="1"/>
                        <rect width="2" height="2" x="12" y="72" rx="1"/>
                        <rect width="2" height="2" x="24" y="72" rx="1"/>
                        <rect width="2" height="2" x="36" y="72" rx="1"/>
                        <rect width="2" height="2" x="48" y="72" rx="1"/>
                        <rect width="2" height="2" x="60" y="72" rx="1"/>
                        <rect width="2" height="2" x="72" y="72" rx="1"/>
                        <rect width="2" height="2" x="84" rx="1"/>
                        <rect width="2" height="2" x="84" y="12" rx="1"/>
                        <rect width="2" height="2" x="84" y="24" rx="1"/>
                        <rect width="2" height="2" x="84" y="36" rx="1"/>
                        <rect width="2" height="2" x="84" y="48" rx="1"/>
                        <rect width="2" height="2" x="84" y="60" rx="1"/>
                        <rect width="2" height="2" x="84" y="72" rx="1"/>
                        <rect width="2" height="2" x="96" rx="1"/>
                        <rect width="2" height="2" x="96" y="12" rx="1"/>
                        <rect width="2" height="2" x="96" y="24" rx="1"/>
                        <rect width="2" height="2" x="96" y="36" rx="1"/>
                        <rect width="2" height="2" x="96" y="48" rx="1"/>
                        <rect width="2" height="2" x="96" y="60" rx="1"/>
                        <rect width="2" height="2" y="84" rx="1"/>
                        <rect width="2" height="2" x="12" y="84" rx="1"/>
                        <rect width="2" height="2" x="24" y="84" rx="1"/>
                        <rect width="2" height="2" x="36" y="84" rx="1"/>
                        <rect width="2" height="2" x="48" y="84" rx="1"/>
                        <rect width="2" height="2" x="60" y="84" rx="1"/>
                        <rect width="2" height="2" x="72" y="84" rx="1"/>
                    </g>
                </g>
            </g>
        </g>
    </g>
</svg>
