<svg xmlns="http://www.w3.org/2000/svg" width="16" height="16" viewBox="0 0 16 16">
    <g fill="none" fill-rule="evenodd">
        <g fill="#3897FF" fill-rule="nonzero">
            <g>
                <g>
                    <g>
                        <g>
                            <g>
                                <path d="M7.693 14.424c3.676 0 6.731-3.049 6.731-6.731 0-3.676-3.062-6.731-6.738-6.731C4.004.962.962 4.017.962 7.692c0 3.683 3.048 6.732 6.73 6.732zm.726-3.61c-.31 0-.555-.237-.555-.547 0-.165.066-.304.172-.403l.93-.91.898-.76-1.59.06H4.406c-.336 0-.56-.238-.56-.568 0-.33.224-.567.56-.567h3.868l1.583.066-.89-.753-.931-.924c-.099-.092-.172-.237-.172-.395 0-.31.245-.548.555-.548.158 0 .29.053.39.152l2.527 2.527c.151.152.21.284.21.442 0 .172-.065.304-.21.449l-2.528 2.52c-.099.093-.23.16-.39.16z" transform="translate(-410 -1061) translate(148 609) translate(0 37.526) translate(246.897 262.981) translate(15.386 145.394) translate(0 6.154)"/>
                            </g>
                        </g>
                    </g>
                </g>
            </g>
        </g>
    </g>
</svg>
