<svg xmlns="http://www.w3.org/2000/svg" width="16" height="16" viewBox="0 0 16 16">
    <g fill="none" fill-rule="evenodd">
        <g fill="#FEAA22" fill-rule="nonzero">
            <g>
                <g>
                    <g>
                        <g>
                            <g>
                                <path d="M7.693 14.424c3.684 0 6.731-3.045 6.731-6.728 0-3.69-3.053-6.734-6.738-6.734C4.002.962.962 4.007.962 7.696c0 3.683 3.046 6.728 6.73 6.728zm2.252-3.852c-.182 0-.332-.072-.442-.182L7.686 8.58 5.883 10.39c-.117.117-.273.182-.45.182-.344 0-.624-.28-.624-.625 0-.169.072-.318.189-.429l1.81-1.822-1.81-1.815c-.117-.11-.19-.267-.19-.43 0-.351.28-.618.626-.618.176 0 .325.065.436.182l1.816 1.81 1.83-1.816c.123-.13.266-.182.436-.182.351 0 .625.273.625.618 0 .169-.059.306-.19.43L8.573 7.695l1.816 1.809c.11.124.182.267.182.442 0 .345-.273.625-.625.625z" transform="translate(-410 -1102) translate(148 609) translate(0 37.526) translate(246.897 262.981) translate(15.386 186.935) translate(0 6.154)"/>
                            </g>
                        </g>
                    </g>
                </g>
            </g>
        </g>
    </g>
</svg>
