<svg xmlns="http://www.w3.org/2000/svg" width="24" height="24" viewBox="0 0 24 24">
    <g fill="none" fill-rule="evenodd" opacity=".4">
        <g>
            <g>
                <g>
                    <g>
                        <path d="M0 0L24 0 24 24 0 24z" transform="translate(-322 -3688) translate(87 3006) translate(0 181) translate(235 501)"/>
                        <path fill="#21272E" d="M9.29 6.71c-.39.39-.39 1.02 0 1.41L13.17 12l-3.88 3.88c-.39.39-.39 1.02 0 1.41.39.39 1.02.39 1.41 0l4.59-4.59c.39-.39.39-1.02 0-1.41L10.7 6.7c-.38-.38-1.02-.38-1.41.01z" transform="translate(-322 -3688) translate(87 3006) translate(0 181) translate(235 501)"/>
                    </g>
                </g>
            </g>
        </g>
    </g>
</svg>
