<svg xmlns="http://www.w3.org/2000/svg" width="15" height="15" viewBox="0 0 15 15">
    <defs>
        <filter id="x6ytihh9fa" width="105%" height="109.2%" x="-2.6%" y="-4.7%" filterUnits="objectBoundingBox">
            <feOffset dy="4" in="SourceAlpha" result="shadowOffsetOuter1"/>
            <feGaussianBlur in="shadowOffsetOuter1" result="shadowBlurOuter1" stdDeviation="3.5"/>
            <feColorMatrix in="shadowBlurOuter1" result="shadowMatrixOuter1" values="0 0 0 0 0 0 0 0 0 0 0 0 0 0 0 0 0 0 0.07 0"/>
            <feMerge>
                <feMergeNode in="shadowMatrixOuter1"/>
                <feMergeNode in="SourceGraphic"/>
            </feMerge>
        </filter>
    </defs>
    <g fill="none" fill-rule="evenodd">
        <g fill="#3897FF" fill-rule="nonzero">
            <g>
                <g>
                    <g filter="url(#x6ytihh9fa)" transform="translate(-918 -2127) translate(533 1597) translate(-25 46) translate(173)">
                        <g>
                            <g>
                                <g>
                                    <g>
                                        <path d="M6.97 13.069c3.33 0 6.099-2.763 6.099-6.099 0-3.33-2.775-6.099-6.105-6.099C3.628.871.871 3.64.871 6.97c0 3.336 2.763 6.099 6.099 6.099zm.658-3.27c-.281 0-.503-.216-.503-.497 0-.15.06-.275.156-.365l.843-.825.813-.688-1.44.054H3.991c-.305 0-.508-.215-.508-.514 0-.299.203-.514.508-.514h3.504l1.435.06-.807-.682-.843-.837c-.09-.084-.156-.215-.156-.359 0-.28.222-.496.503-.496.143 0 .263.048.352.137l2.29 2.29c.138.138.192.257.192.401 0 .155-.06.275-.192.407L7.98 9.655c-.09.083-.209.143-.352.143z" transform="translate(0 34) translate(223.697 238.27) translate(13.94 207.008) translate(0 5.576)"/>
                                    </g>
                                </g>
                            </g>
                        </g>
                    </g>
                </g>
            </g>
        </g>
    </g>
</svg>
