<svg xmlns="http://www.w3.org/2000/svg" width="16" height="16" viewBox="0 0 16 16">
    <g fill="none" fill-rule="evenodd">
        <g>
            <g>
                <g>
                    <g>
                        <g>
                            <path d="M0 0L15.383 0 15.383 15.379 0 15.379z" transform="translate(-166 -1124) translate(148 609) translate(0 37.526) translate(6.153 466.754) translate(12.306 10.765)"/>
                            <path fill="#21272E" fill-rule="nonzero" d="M6.916 10.439c.25.25.654.25.904 0l2.3-2.3c.25-.25.25-.655 0-.904l-2.3-2.3c-.25-.25-.654-.25-.904 0-.25.249-.25.653 0 .903l1.205 1.21H2.564c-.353 0-.641.29-.641.642 0 .352.288.64.64.64h5.558L6.916 9.535c-.25.25-.244.66 0 .904zm5.262-8.517H3.205c-.712 0-1.282.577-1.282 1.282v1.922c0 .353.288.641.64.641.353 0 .642-.288.642-.64V3.844c0-.353.288-.641.64-.641h7.692c.353 0 .641.288.641.64v7.69c0 .353-.288.641-.64.641H3.845c-.353 0-.641-.288-.641-.64v-1.282c0-.353-.289-.641-.641-.641-.353 0-.641.288-.641.64v1.923c0 .705.577 1.282 1.282 1.282h8.973c.705 0 1.282-.577 1.282-1.282V3.204c0-.705-.577-1.282-1.282-1.282z" transform="translate(-166 -1124) translate(148 609) translate(0 37.526) translate(6.153 466.754) translate(12.306 10.765)"/>
                        </g>
                    </g>
                </g>
            </g>
        </g>
    </g>
</svg>
