<svg xmlns="http://www.w3.org/2000/svg" width="20" height="20" viewBox="0 0 20 20">
    <g fill="none" fill-rule="evenodd">
        <g fill="#FFF" fill-rule="nonzero">
            <g>
                <g>
                    <g transform="translate(-619 -5242) translate(0 5180) translate(619 62) translate(1.667 1.667)">
                        <path d="M11.681 0H4.956C2.223 0 0 2.223 0 4.956v6.725c0 2.733 2.223 4.957 4.956 4.957h6.725c2.733 0 4.957-2.224 4.957-4.957V4.956C16.637 2.223 14.413 0 11.68 0zm3.283 11.681c0 1.813-1.47 3.283-3.283 3.283H4.956c-1.813 0-3.282-1.47-3.282-3.283V4.956c0-1.813 1.47-3.282 3.282-3.282h6.725c1.813 0 3.283 1.47 3.283 3.282v6.725z"/>
                        <path d="M8.319 4.016c-2.373 0-4.303 1.93-4.303 4.303 0 2.372 1.93 4.303 4.303 4.303 2.372 0 4.303-1.93 4.303-4.303s-1.93-4.303-4.303-4.303zm0 6.932c-1.452 0-2.63-1.177-2.63-2.63 0-1.451 1.178-2.629 2.63-2.629s2.63 1.178 2.63 2.63-1.178 2.63-2.63 2.63z"/>
                        <circle cx="12.63" cy="4.048" r="1.031"/>
                    </g>
                </g>
            </g>
        </g>
    </g>
</svg>
