<svg xmlns="http://www.w3.org/2000/svg" width="16" height="17" viewBox="0 0 16 17">
    <g fill="none" fill-rule="evenodd">
        <g>
            <g>
                <g>
                    <g>
                        <path d="M0 0L15.383 0 15.383 15.379 0 15.379z" transform="translate(-273 -665) translate(148 609) translate(0 37.526) translate(125.371 19.224)"/>
                        <path fill="#B4BABF" d="M9.935 8.971h-.507l-.179-.173c.77-.897 1.167-2.12.949-3.422-.302-1.781-1.789-3.204-3.583-3.422-2.712-.333-4.993 1.948-4.66 4.659.218 1.794 1.64 3.28 3.423 3.582 1.3.218 2.525-.18 3.422-.948l.173.18v.505l2.724 2.724c.263.262.693.262.955 0 .263-.263.263-.692 0-.955L9.935 8.97zm-3.846 0c-1.596 0-2.884-1.288-2.884-2.883 0-1.596 1.288-2.884 2.884-2.884 1.596 0 2.884 1.288 2.884 2.884 0 1.595-1.288 2.883-2.884 2.883z" transform="translate(-273 -665) translate(148 609) translate(0 37.526) translate(125.371 19.224)"/>
                    </g>
                </g>
            </g>
        </g>
    </g>
</svg>
