<svg xmlns="http://www.w3.org/2000/svg" width="19" height="20" viewBox="0 0 19 20">
    <g fill="none" fill-rule="evenodd">
        <g>
            <g>
                <g>
                    <g>
                        <g>
                            <g>
                                <g>
                                    <path d="M0 0L12.309 0 12.309 12.309 0 12.309z" transform="translate(-1036 -927) translate(148 609) translate(0 37.526) translate(246.897 262.981) translate(571.576 15.386) translate(70.005 3.077) translate(3.077 3.077)"/>
                                    <path fill="#21272E" d="M3.623 5.931l1.993 1.993c.3.3.784.3 1.084 0L8.693 5.93c.485-.484.138-1.315-.546-1.315H4.162c-.685 0-1.023.83-.539 1.315z" transform="translate(-1036 -927) translate(148 609) translate(0 37.526) translate(246.897 262.981) translate(571.576 15.386) translate(70.005 3.077) translate(3.077 3.077)"/>
                                </g>
                            </g>
                        </g>
                    </g>
                </g>
            </g>
        </g>
    </g>
</svg>
