<svg xmlns="http://www.w3.org/2000/svg" width="20" height="20" viewBox="0 0 20 20">
    <g fill="none" fill-rule="evenodd">
        <g fill="#FFF" fill-rule="nonzero">
            <g>
                <g>
                    <g>
                        <path d="M3.704 1.852c0 1.018-.648 1.852-1.852 1.852C.74 3.704 0 2.87 0 1.944 0 .926.74 0 1.852 0c1.111 0 1.852.833 1.852 1.852zM0 16.667h3.704V4.63H0v12.037zM12.593 4.815c-1.945 0-3.056 1.11-3.519 1.852h-.093l-.185-1.574H5.463c0 1.018.093 2.222.093 3.61v7.964h3.703v-6.574c0-.37 0-.649.093-.926.278-.648.74-1.482 1.76-1.482 1.295 0 1.851 1.111 1.851 2.593v6.389h3.704V9.815c0-3.426-1.76-5-4.074-5z" transform="translate(-655 -5242) translate(0 5180) translate(655 62) translate(1.667 .833)"/>
                    </g>
                </g>
            </g>
        </g>
    </g>
</svg>
