<svg xmlns="http://www.w3.org/2000/svg" width="15" height="15" viewBox="0 0 15 15">
    <defs>
        <filter id="cu37nqiuka" width="105%" height="109.2%" x="-2.6%" y="-4.7%" filterUnits="objectBoundingBox">
            <feOffset dy="4" in="SourceAlpha" result="shadowOffsetOuter1"/>
            <feGaussianBlur in="shadowOffsetOuter1" result="shadowBlurOuter1" stdDeviation="3.5"/>
            <feColorMatrix in="shadowBlurOuter1" result="shadowMatrixOuter1" values="0 0 0 0 0 0 0 0 0 0 0 0 0 0 0 0 0 0 0.07 0"/>
            <feMerge>
                <feMergeNode in="shadowMatrixOuter1"/>
                <feMergeNode in="SourceGraphic"/>
            </feMerge>
        </filter>
    </defs>
    <g fill="none" fill-rule="evenodd">
        <g>
            <g>
                <g>
                    <g filter="url(#cu37nqiuka)" transform="translate(-794 -1694) translate(533 1597) translate(-25 46) translate(173)">
                        <g>
                            <g>
                                <path d="M0 0L13.938 0 13.938 13.934 0 13.934z" transform="translate(0 34) translate(113.59 17.417)"/>
                                <path fill="#B4BABF" d="M9.001 8.128h-.458l-.163-.157c.697-.812 1.057-1.921.86-3.1-.274-1.614-1.62-2.903-3.247-3.1-2.456-.302-4.524 1.765-4.222 4.22.198 1.626 1.487 2.973 3.101 3.246 1.18.197 2.288-.163 3.101-.86l.157.163V9l2.468 2.467c.238.239.627.239.866 0 .238-.238.238-.627 0-.865L9 8.128zm-3.484 0c-1.446 0-2.613-1.167-2.613-2.612 0-1.446 1.167-2.613 2.613-2.613S8.13 4.07 8.13 5.516c0 1.445-1.167 2.612-2.613 2.612z" transform="translate(0 34) translate(113.59 17.417)"/>
                            </g>
                        </g>
                    </g>
                </g>
            </g>
        </g>
    </g>
</svg>
