<svg xmlns="http://www.w3.org/2000/svg" width="138" height="86" viewBox="0 0 138 86">
    <g fill="none" fill-rule="evenodd" opacity=".5">
        <g fill="#000">
            <g>
                <g>
                    <g>
                        <path d="M64.6 26.006c.088.242.188.506.15.77h.05c-.225 1.494-1.121 2.956-2.692 3.791-.186.11-.336-.098-.498-.021-.262-.143-.524-.45-.337-.737.449-.374 1.284-.286 1.433-.956.262-.396.562-.78.785-1.187.014-.078-.087-.132-.15-.154-.423.044-.71.197-1.083.363-.324.098-.573-.012-.835-.176-.362-.22-.175-.594-.175-.88.1-.242.138-.516.412-.703.199-.308.286-.791.784-.847.81-.198 1.733.023 2.157.737M53.54 30.113c-.095.436.213.895-.142 1.262-.285 1.032-.89 2.007-1.138 3.085-.07.39-.177.769-.343 1.125l.06.057c-.107 0-.107.103-.167.172 0 .046-.023.103.024.138.403-.253.545-.746.71-1.102-.023-.298.25-.493.143-.78l.06-.298c1.196-1.594 2.973-2.833 4.572-3.877.391-.045.747.16 1.113.276.487.286.936.653 1.222 1.123.355.207.307.643.627.85.083.24-.13.412-.12.665-.26 2.35-1.337 4.382-2.58 6.331v.115c-.38.402-.689.895-1.02 1.342-.273.103-.604.195-.664.493-.533.275-1.35.265-1.954.057-.296-.229-.818-.504-.746-.986.141-.63.592-1.376.177-1.984.261-.608 1.007-.424 1.529-.573.77.734.14 1.8.035 2.638.368.057.734-.081.995-.299.414-.584.699-1.227 1.22-1.743.154-.23.012-.596.344-.735.059-.756.426-1.456.509-2.236.166-.952.474-1.962.51-2.97-.071-.162-.06-.368-.225-.495.046-.171-.143-.205-.202-.31-.094-.102-.249-.148-.391-.217-.012-.126-.094-.195-.201-.218-.12.08-.214.218-.367.275-.035.436-.57.276-.77.47-.119.047-.166.081-.285.024-.26-.092-.332.275-.462.31-.865.7-1.362 1.663-2.037 2.5-.842 1.365-1.541 2.845-2.168 4.244l.035.023c-.284.023-.143.367-.343.494-.356.584-.617 1.215-1.055 1.766-.082-.172-.307-.31-.51-.253l-.746.528c-.166-.069-.13-.275-.189-.413 1.066-2.57 1.599-5.345 2.843-7.846.142-.356.296-.653.474-.997.071-.253.011-.494.036-.735-.225-.15-.225.115-.368.218l-.035-.034c-.51.378-.747.963-1.303 1.296-.155-.07-.273.126-.427.138-.082-.058-.26.08-.32-.08.13-1.01.889-1.756 1.458-2.593.426-.195.864-.367 1.28-.596.14.057.379 0 .532-.058.272.092.782-.011.77.413M44.055 31.197c.394-.274.548-.798 1.043-.966.216-.107.459-.286.7-.37.127.06.28 0 .394-.059.255-.036.51.06.763.084.256.703-.368 1.275-.763 1.836-1.068.584-2.137 1.169-3.32 1.48.343-.622.725-1.36 1.183-2.005m-.547 2.672c1.005-.215 1.997-.394 3.092-.525.815-.572 1.463-1.43 1.832-2.254.128-.394.255-.93.089-1.288-.483-.596-1.272-.835-1.96-1.002-.814.12-1.526.823-2.404.453-.408.298-.904.62-1.17 1.002-.052.084-.128.203-.268.203-1.374 1.479-2.341 3.113-2.94 4.89.026 1.347-.457 2.469.064 3.721.535 1.002 1.781 1.383 2.787 1.431.636-.155 1.336-.203 1.857-.62.446-.191.853-.442 1.286-.668.534-.93 1.374-1.658 1.642-2.684-.014-.226.19-.512-.052-.691-.408 0-.7.19-.916.489-.127-.012-.293.095-.19.226-.408.705-.866 1.36-1.49 1.92-.712.526-1.692.99-2.57.632-.254-.179-.623-.321-.636-.655-.153-.883-.23-1.885.026-2.815.165-.859 1.018-1.598 1.92-1.765M66.863 29.872c.796-.187 1.515.293 2.22.563 1.232.574 1.129 1.921 1.104 3.01-.206.164-.411.434-.706.446-.552-.14-.938-.692-1.053-1.183.052-.352-.115-.74.04-1.09-.18-.258.32-.598-.155-.738-.167.129-.308-.082-.372-.164-.18-.059-.423.011-.526-.141-.167.059-.282-.011-.437.118-.012-.06-.076-.106-.153-.095-.052.024-.014.083-.026.118l-.064-.059c-.257.118-.655.21-.68.54-.154.093-.244.304-.334.48-.103.222-.103.492-.18.726.04.094.04.14.026.257.244.762.68 1.453.86 2.25l.192.164-.064.059c.462.983 1.271 1.78 1.386 2.894.128.655-.244 1.265-.68 1.769-.424.374-.873.854-1.411 1.124-.193.14-.45.152-.616.34-.155.035-.334-.083-.462.082-.219-.024-.45-.094-.591.058-.09-.175-.269-.011-.398-.14-.462-.094-.962-.328-1.321-.644-.154.034-.18-.13-.256-.2-.668-.469-1.08-.937-1.746-1.406.32-.562-.41-1.042-.065-1.605.296-.234.617-.257 1.015-.199l.705.762c-.423.772.436 1.276.809 1.862.23-.07.5-.034.667.14.18.223.218.517.5.668.577.048 1.026-.421 1.502-.62.68-.363.59-.972.59-1.629l-.064-.058.09-.047c-.115-.422.18-.914-.334-1.16-.911-.843-1.501-1.816-1.938-2.835-.192-.82-.192-1.875.116-2.706.757-.55.91-2.46 2.284-1.71.141.105.372.046.526 0M35.138 36.64c-.096.271-.072.638-.036.933-.568.662-1.22.815-1.883 1.335l-.024-.035c-.628.59-1.606.377-2.318.625-.977.284-2.088.402-3.126.343.12-1.535 1.231-2.775 1.328-4.31.58-.981.99-2.08 1.218-3.178.604-.437 1.365-.036 2.09-.284.458-.082.82.248 1.266.284.194.189.688.272.58.602.35.26.857.141 1.135.567.567 1.016-.193 2.09-.23 3.118M32.12 25.632c.122-.354.205-.708.52-.897.434-.106.88-.177 1.34 0 .313.035.627.106.893.283.169.036.302.178.459.224.096.13.35.225.41.426.314.083.483.402.7.65.073.767-.217 1.429-.531 2.067-.194.365-.302.779-.46 1.168-1.472.591-3.04 1.678-4.718 1.135.156-1.808.615-3.497 1.387-5.056m4.286 7.288c-.23-.248-.628-.213-.785-.532-.422-.2-.833-.425-1.267-.567-.182-.248-.555-.094-.7-.377.168-.083.301-.249.518-.225.085-.236.315 0 .35-.224 1.147-.13 2.101-.591 2.934-1.418v-.082c.688-.58 1.268-1.276 1.243-2.126-.18-.898-.398-1.819-.93-2.551-.265-.178-.53-.473-.868-.508-1.147 0-2.04-.425-3.163-.626-.64-.225-1.424-.284-2.076-.284-.17.142-.447.048-.616.201-.712 0-1.52.141-2.136.531-.422.272-.87.473-1.304.71-.326.035-.592.341-.905.224-.254.176-.58.094-.87.035-.615.579-1.267.969-1.883 1.5-.422.165-.495.72-.603 1.051.085.083-.181.166 0 .249.085.282.374.52.603.708.206-.07.4.165.58-.024.652-.59 1.388-1.3 1.944-1.925.397-.248.566-.78 1.098-.767.326-.095.688-.367.99-.544.615-.26 1.255-.697 1.943-.65-.06.237-.29.39-.41.603-.121.378-.35.708-.52 1.075-1.085 3.011-1.376 6.472-2.317 9.602-.242.732-.434 1.5-.845 2.125-.23.662-.53 1.3-1.038 1.843-.543.26-1.062.024-1.593-.106-.41-.048-.906-.295-1.28 0 .048.508.434.968.906 1.217.156.047.337-.036.483.117 1.206.083 2.57-.295 3.886-.117.363.153.713.342 1.135.342.591-.047 1.086-.331 1.617-.508.435-.378 1.135-.496 1.618-.319.555-.236 1.183-.307 1.774-.448 1.304-.462 2.523-1.335 3.44-2.446.592-.897 1.11-2.078.495-3.118-.447-.555-.773-1.24-1.448-1.641" transform="translate(-571 -1391) translate(148 1283) translate(423 108) translate(26 8)"/>
                        <path d="M64.411 35.56v.047c-.106.046-.076-.076-.122-.122.062-.016.076.046.122.076M35.93 42.467c.94.602 1.867 1.206 2.604 2.082.57 1.348-.452 2.462-1.177 3.49-.238.225-.428-.177-.654-.26-.95-1.172.273-2.793-.94-3.799-.463-.118-.784-.732-1.306-.52-.31.119-.714.107-.916.344-.737.118-1.248.745-1.747 1.313-.666.959-1.094 2.023-1.51 3.088.118.366-.178.71-.344 1.029-1.308.852-.512 2.591-1.428 3.633.702 2.26-1.51 5.869 1.57 7.016 1.7.414 3.138-.662 4.256-1.823.653-.98 1.188-2.023 1.914-2.98.189-.036.344.047.487.141-.024.119.011.202.082.285-.296 2.377-2.127 4.814-4.564 5.453-.713.06-1.379.343-2.14.202-1.153-.107-2.282-.768-2.971-1.763-.32-.58-.642-1.172-.713-1.846-.143-.106.082-.284-.107-.366-.072-.604-.096-1.255-.202-1.906.142-.531-.18-1.112.083-1.62-.024-.876.368-1.657.344-2.497l.108-.059c.63-2.639 1.842-5.076 3.827-7.099-.036-.166.047-.083.142-.143.155-.378.654-.295.88-.508.309.142.5-.201.75-.177 1.152-.403 2.34-1.231 3.672-.71M71.05 45.587c.283 1.247-.711 1.997-1.262 2.892-.19.176-.431.132-.646.044l-.713-.821c-.201-1.175.673-2.174 1.52-2.702.43.044.887.132 1.101.587M43.07 55.547c-.153.296-.177.71-.365 1.03-.446 1.017-1.188 1.846-2 2.616-.246-.023-.423.048-.623-.095-.47-.473-.353-1.243-.447-1.893.012-.25 0-.51.082-.745-.106-.558.06-1.173.083-1.706.14-.591.2-1.266.541-1.811.247-.994 1.094-1.859 1.94-2.39.248-.013.542-.025.624.224.424.225.506.804.448 1.219.247 1.124-.06 2.427-.283 3.551zM45 52.825c0-.723-.212-1.433-.377-2.13-.141-.593-.812-.971-1.294-1.137-.506 0-1.035-.13-1.53 0-.047-.024-.093-.095-.141 0-1.164.272-1.764 1.49-2.482 2.354v.119c-.059.106-.117.285-.282.285.106.13-.117.023-.141.142l.118.106c-.224.296-.283.687-.365.995-.295.899-.459 1.918-.624 2.9-.117.188.106.415-.082.567l.082.084c.059.083 0 .177-.058.236.14.083-.048.225.117.308 0 .804.376 1.456.753 2.108.74.59 1.6.544 2.517.532 1.389-1.338 2.46-2.746 3.189-4.463.105-.38.258-.733.399-1.1.094-.628.176-1.148.141-1.824l.06-.082zM84.923 49.611c.39.23.883.603 1.06 1.096l.151.168c.038.842.618 1.89-.064 2.576-.264.24-.529.169-.82.06-.24-.217-.694-.494-.63-.903-.039-.686.707-1.384.176-2.045-.037.036-.037.084-.088.108 0-.228-.279-.325-.455-.397-.1 0-.227-.023-.277.085-.353-.206-.745.012-1.06.143-.316.326-.026.806-.114 1.18-.012 1.612-.38 3.322.669 4.657l.176 1.672c.064.096-.012.325.064.457.037.23-.139.433-.24.638-.593 1.023-1.49 2.226-2.915 2.082-.543-.325-1.15-.205-1.78-.313-.215-.036-.365-.169-.556-.241-.227-.578-.492-1.143-.782-1.697-.012-.613-.164-1.203.24-1.732.277-.193.53-.578.946-.554.253.193.53.3.657.614.1.541-.24.975-.266 1.492-.125.18-.278.372-.214.577-.113.085-.038.242-.064.35.607.505 1.617.626 2.336.349.72-.565.997-1.505.82-2.31-.505-1.468-.921-2.865-1.123-4.452-.025-.904.063-1.89.732-2.6v-.084c.92-.82 2.133-1.323 3.42-.976M67.468 49.945c.178 2.366-.92 4.415-1.382 6.606-.198.657-.407 1.29-.574 1.945-.19.27-.263.644-.325.902.23.34.523-.035.775-.083.303-.28.637-.667.68-1.077.198-.14.208-.433.376-.586.189-.457.575-.925 1.005-1.101.188 0 .334.187.377.375 0 .364-.105.692-.105 1.066-.21.153.105.34-.074.504-.607.89-1.402 1.429-2.312 1.687-.22-.13-.418.117-.649.117-.481-.212-1.088-.34-1.36-.879.177-1.008.314-1.92.68-2.835.168-.738.544-1.44.753-2.19.147-.234.23-.492.325-.738.335-1.008.774-1.968.879-3.093-.177-.035-.314-.058-.43.14-.544.633-1.098 1.524-1.883 1.77-.105-.118-.377-.282-.22-.47.325-.373.471-.9.9-1.123v-.094c.596-.539 1.14-1.018 1.831-1.288.293.022.64.082.733.445M52.257 55.511c-.287 1.079-.574 2.155-1.136 3.126-.612.706-1.474 1.388-2.523 1.102-1.499-2.155-.013-4.623.274-6.814.687-.91 1.15-2.682 2.76-2.215l.263.311c.137.575.2 1.162.55 1.64.024.947.1 1.917-.188 2.85m.986-4.656c-.35-.72-1.174-1.235-1.973-1.355-.724.085-1.398.324-1.972.695-.538.203-.975.682-1.387 1.066v.084c-1.3 1.58-1.523 3.64-2.011 5.519.125.791.45 1.51.725 2.24.287.898 1.024 1.76 1.973 2.096.437-.025.874-.048 1.236-.227.112-.169.375-.025.45-.228 1.436-.671 2.36-2.085 3.085-3.401.85-1.904.874-4.527-.126-6.49M61.645 50.561c.121.025.278-.07.35.083.06.891-.205 1.842-1.098 2.275-.565.106-.94.656-1.506.762.687-1.067 1.531-2.063 2.254-3.12zm2.11 7.765c-.036.105-.144.013-.205.083-.723.374-.711 1.372-1.53 1.5-.218-.598-.362-1.29-.64-1.888-.229-.563-.434-1.161-.808-1.63-.132-.388-.398-.728-.687-1.044-.12-.187-.421-.365-.494-.598l.808-.305c.41-.13.808-.293 1.181-.504 1.17-.41 2.243-1.526 2.411-2.733.096-.74-.205-1.432-.784-1.888-.795-.187-1.41.374-2 .844-.53.54-1.001 1.172-1.556 1.583.158-1.36.555-2.627.892-3.916.374-1.151.748-2.383 1.158-3.462.011-.398.361-.714.229-1.102.048-.375-.338-.586-.579-.809-.3-.035-.579-.211-.892-.14-.374.01-.41.398-.639.42-.518.646-1.362 1.022-1.76 1.773-.144.293-.337.633-.181.984.507.293.772-.375 1.097-.62.06-.341.434-.576.64-.787l.035.023c.073-.128.218-.128.338-.14.096.247.096.693 0 .926-.036.446-.12.869-.253 1.267-.277 1.302-.916 2.44-1.013 3.8-.952 1.514-1.302 3.261-1.856 4.927-.06.445-.23.82-.253 1.266-.241.07-.11.328-.145.481-.302.996-.602 2.11-1.049 3.097-.144.246-.361.469-.313.785.145.351.567.235.832.259.602-.575.976-1.22 1.133-1.971.398-.996.53-2.135 1.386-2.932h.12c1.086 1.348 1.086 3.13 2.28 4.422v.082c.433.305.867.657 1.337.821 1.217-.435 1.7-1.632 1.905-2.733l-.146-.14zM77.182 51.787c-.492.51-.935.868-1.522 1.227-.444.396-.983.661-1.667.557.252-.881.72-1.67 1.402-2.365.576-.428 1.212-.869 2.015-.695l.06.244c-.144.325.012.765-.288 1.032m1.954-1.727l-.047-.163c-1.295-1.02-2.723.267-4.149.082l-.695.497c-.072.14-.276.302-.455.36-.072.174-.277.301-.313.476-.323.104-.323.475-.61.59l.035.024c-.552.648-.887 1.448-1.39 2.109-.072 1.46-.552 2.908-.372 4.427 0 .232.252.395.12.638h.083c.157.37.288.764.636 1.031.563.324 1.223.104 1.81-.023.947.08 1.57-.59 2.278-1.066.755-.707 1.187-1.577 1.055-2.527-.048-.082-.156-.116-.228-.082-1.175.071-.934 1.358-1.21 2.11-.18.36-.552.487-.887.614-.48.197-1.223.256-1.643-.196-.396-.72-.396-1.519-.371-2.365.011-.081.132-.197.022-.242.17-.627.241-1.276.612-1.809l.6.023c.336-.105.695-.116 1.007-.278.444-.22.863-.464 1.331-.638.072-.116.263-.104.372-.22.395-.093.73-.302 1.15-.336l1.032-1.564.035-.186c.192-.382.348-.835.192-1.286M19.842 0c0 .157.197.114.31.172.478.413 1.04.899 1.378 1.47l.07 1.713c-.098.314-.492.271-.717.172-.183-.172.084-.33.042-.515.028-.856-.534-1.384-1.054-2.012-.352-.044-.69-.086-.971-.315.042-.257.281-.499.506-.613.14-.058.296.028.436-.072M19.862 2.835c.233.587.733.819.838 1.483-.082.433-.326.958-.699 1.035-.209-.262-.14-.679-.302-.958-.64.047-1.188.387-1.653 1.005-.198-.078-.42.046-.524-.263.36-1.158 1.443-.803 2.095-1.452-.116-.2-.337-.355-.5-.557-.396-.354-.827-.772-1.316-.586-.151.216-.36.51-.594.185-.092-.093-.116-.232-.104-.371.104-.293.337-.525.582-.556.78.062 1.607.185 2.177 1.035M24.299 4.715c-.042.265.11.508-.208.685-.471-.21-.555-.673-.86-1.005-.193-.044-.346-.297-.595-.264-.306-.122 0-.298 0-.453.193-.155.47-.033.693-.022.513.265.416.795.97 1.06" transform="translate(-571 -1391) translate(148 1283) translate(423 108) translate(26 8)"/>
                        <path d="M21.502 5.256c.164.234.11.657-.068.902-.097-.023-.192-.07-.26-.14-.165-.399-.179-.89-.631-1.125-.287.011-.575.046-.589.328-.205.351-.3.739-.725 1.02-.042.07-.123.058-.192.058l-.137-.117c.013-.574.137-1.23.821-1.547.315-.059.672-.235.986-.059.343.129.644.387.795.68M24.175 6.102c.58.113 1.064-.124 1.527.175-.41.885.892 1.616.182 2.47-.161.226-.397.298-.645.226-.322-.041-.043-.33-.129-.473.377-.443-.172-1.02-.032-1.575-.269-.36-.817-.257-1.236-.278-.173-.082-.312-.216-.355-.39.032-.093.054-.227-.032-.3-.054-.112-.183-.082-.28-.123-.13.226-.398.093-.548.268-.119-.031-.161-.165-.097-.268.312-.236.602-.576 1-.37.29.123.473.411.645.638M23.314 7.505c.031.137.11.26.079.425l-.157.137c-.484-.054-1.063.096-1.532 0-.203-.137-.047-.315-.047-.493.344-.63 1.235-.33 1.657-.069M24.237 9.388c.013.14.15.372-.025.512-.512 0-1.048-.5-1.56-.116-.25-.082-.125-.35-.088-.5.425-.524 1.249-.222 1.673.104M17.067 9.17c.066.247.053.516-.224.674-.093-.045-.225-.023-.343-.023l-.066.079c-.146-.124-.225-.259-.225-.46-.04-.192.04-.506.383-.428.145 0 .33.068.475.158" transform="translate(-571 -1391) translate(148 1283) translate(423 108) translate(26 8)"/>
                        <path d="M23.347 9.558c.181.419-.165.78-.115 1.152-.181.128-.396.104-.593.023-.643-.325-.693-.872-1.039-1.314 0-.233.297-.361.561-.419.46.07.94.233 1.186.558" transform="translate(-571 -1391) translate(148 1283) translate(423 108) translate(26 8)"/>
                        <path d="M24.083 10.41c.344.787.31 1.537-.327 2.187-.207.012-.379-.012-.534-.087.258-.588.19-1.088.206-1.713-.24-.337-1.187-.275-.86-.775.516-.238 1.411-.138 1.515.387M20.675 10.18c.188.676-.765.945-.421 1.595-.321.396-.742.894-1.252.817-.188-.166-.067-.46-.022-.663.11-.434.953-.103.554-.676.144-.575.62-.817.853-1.353.122.038.266.128.288.28M22.5 12.249c-.197.97-1.048 1.667-1.923 2.129-.37.118-.555-.26-.777-.462.037-.142.135-.26.271-.33.284-.06.345.319.653.141.37-.438 1.209-.591 1.123-1.313-.173-.13-.407-.047-.63-.107-.037-.13-.073-.402.1-.52.16-.118.455-.106.64-.023.223.07.42.295.543.485M10.794 12.041c.05.323-.236.387-.37.559-.17-.107-.473.022-.524-.301.034-.28.236-.41.405-.581.22-.085.337.151.49.323M24.238 12.854c.142.354.012.813-.106 1.167-.213.167-.472.177-.602.406 0 .178-.106.376-.023.521-.024.47 0 1.043-.567 1.23-.14-.042-.318.115-.401-.073-.13-.5.767-1.031 0-1.354-.177-.23.295-.448.484-.605.2-.083.412-.218.542-.417.484-.406-.826-.969.19-1.125.212-.031.342.125.483.25" transform="translate(-571 -1391) translate(148 1283) translate(423 108) translate(26 8)"/>
                        <path d="M20.584 14.792c-.07.88.227 1.656.069 2.506-.03.206-.158.337-.138.557-.128.308-.346.015-.493.103-.593-.645.197-1.29.138-2.038v-1.436c.167-.25.325.117.424.308M15.158 18.95c-.077.258.155.724-.207.8h-.413v-.8h.62zM15.3 27.988c-.164.278-.267.577-.638.812-.473-.203-.185-.62-.062-.898.268-.01.494.022.7.086" transform="translate(-571 -1391) translate(148 1283) translate(423 108) translate(26 8)"/>
                        <path d="M14.4 28.284c-.086.241-.223.554-.497.64-.223.255-.034.525-.411.724-.207.327-.155.938-.824.952l-.068-.071c-.017-1.009.892-1.805 1.44-2.629.24.028.24.256.36.384M12.358 31.104c-.103.103-.206.258-.361.18-.181-.18.078-.386.232-.49.103.078.156.18.13.31M5.03 31.36H4.9l-.052-.62c0 .232.285.362.181.62" transform="translate(-571 -1391) translate(148 1283) translate(423 108) translate(26 8)"/>
                        <path d="M11.69 31.366c.205-.013.323-.229.499-.35.117.148.352.135.411.323-.059.39-.485.618-.807.833-.22-.08-.235.134-.309.228-.338-.053-.528-.389-.645-.645-.104-.389 0-.846.323-1.155.293.121.425.484.528.766M11.7 49.726c-.175.484.125 1.154-.475 1.574-.225-.56-.3-1.028-.425-1.605.125-.265.8-.265.9.03M12.796 50.462c-.22.646-.526 1.354-.526 2.086-.16.097-.061.354-.086.464-.16 1.305-.012 2.476.319 3.696.073.33.22.634.33.964.355 1.245 1.065 2.404 1.788 3.539 1.102 1.586 2.23 3.038 3.564 4.514.086.207.356.378.55.525.16.122.259.451.528.414.318.513.906.903 1.36 1.282.77-.39.991.94 1.787.67.086.062.098.147.086.245 0 .122-.196.22-.318.256-.258.012-.392-.256-.674-.171-.073-.085-.257-.085-.33 0l-.234.293c-.575.037-1.15 0-1.763.061-.073-.074-.147-.147-.11-.269-.478-.072-1.004-.072-1.384-.292-.05-.098.073-.134.11-.208.441-.025.833-.073 1.323-.061.208-.073.49.036.649-.146-.11-.22-.38-.317-.588-.44-.441-.438-1.102-.854-1.53-1.427-.417-.354-.736-.866-1.177-1.233-1.739-2.415-3.05-4.928-4.14-7.612-.22-.11-.048-.392-.268-.5 0-.135-.05-.257-.11-.379-.05.012-.111.06-.123.122.049.842-.073 1.732-.11 2.538-.54 0 .06 1.257-.736.731.246-.33-.073-.658-.183-.963 0-1.574.71-3.063.526-4.71-.073-.403-.183-.78-.343-1.147 0-.353-.023-.829.025-1.171.025-.05.086-.025.123-.025.061.05.098.11.085.208.245.22.233.561.404.817h.099c.343-.914.612-1.744.784-2.72.097.012.244-.061.293.049" transform="translate(-571 -1391) translate(148 1283) translate(423 108) translate(26 8)"/>
                        <path d="M18.416 60.353c.485.432.145 1.283.812 1.556-.17.125.073.216.11.33 1.09 1.327 2.448 2.293 3.758 3.348 1.285 0 2.376.772 3.637.488.097.035.218.091.267.194v.545c-.91.84-1.613 1.76-2.534 2.452-2.995.227-6.22 1.657-9.203.465-.34-.011-.679-.158-.836-.465-.11-.306.133-.625.436-.738.546-.25 1.212-.454 1.807-.137 0 .205-.194.352-.352.466-.485.023-.873-.272-1.31-.034.4.33.946.397 1.455.545 1.42.432 2.983.136 4.365.057l.255-.102c.085.124.254-.091.388.022.74-.295 1.6-.272 2.376-.568.11-.057.328.012.328-.17-.328-.261-.813.182-1.14-.159.619-.613 1.94.125 2.51-.737.29-.318.46-.67.69-1.011-.69-.08-1.551-.364-2.06.25-.376-.068-.704-.239-1.055-.352-1.285-1.203-2.728-2.226-3.892-3.52-.11-.011-.158-.067-.182-.159-.4-.51-.8-1.01-1.019-1.59-.29-.419-.12-1.033-.606-1.384-.036-.182-.29-.352-.145-.545.594.113.558.806 1.14.953M11.56 60.62c-.13.493.543 1.151-.31 1.48l-.44-.254.052-1.435c.31-.27.698.015.698.208" transform="translate(-571 -1391) translate(148 1283) translate(423 108) translate(26 8)"/>
                        <path d="M7.102 68.897c-.05-.06-.293-.06-.342-.205.134.024.293.06.342.205zm.585 1.095l1.462.41c-.134-.073-.378.024-.463-.084-2.462-.157-4.875-.795-7.02-1.915-.268-.3-.816-.625-.585-1.095.5-.156.902.109 1.402.06.256.085.524.133.731.313.756.157 1.304.614 2.084.722-.11.265.049.494.146.699.622.698 1.5.517 2.243.89zm3.802-57.39c-.256.228-.512.47-.817.577-.256-.06-.329-.385-.585-.47l-.524-.252.268-.554 1.694.145c.11.169.037.385-.036.554zm-2.133.662c-.097-.145-.256-.253-.317-.41l.217-.169c-.25.245.34.485.454.663-.086.048-.232-.012-.354-.084zm-1.194-.843c-1.45.807-2.73 1.998-3.802 3.322.085.169.097.446.353.47.682-1.12 1.913-1.77 2.974-2.432l-.086.205c-.475.289-.95.686-1.34 1.071l-.232.109c-.329.36-.731.734-.853 1.191.134.108.268.313.439.253l1.255-.89c-1.011.83-2.12 1.72-2.693 2.948-.183.12-.341.361-.549.373-.182-.132-.329-.313-.268-.517.342-1.035.524-2.167.646-3.238.122-.096-.122-.253.086-.289-.074-.036-.061-.109-.061-.18.121.024.134.204.268.24.828-.036.95-.963 1.401-1.445.707-.517 1.462-1.504 2.486-1.275l-.024.084zm-1.986-.602c.597-.228 1.096-.722 1.803-.698.025.145-.098.289-.232.325-1.12.024-1.888.88-2.802 1.384.365-.349.755-.698 1.23-1.01zM19.8 22.532c-.122-.482-.329-1.096-.902-1.216-.305.073-.146.421-.268.614-.073 1.071-.256 2.082-.354 3.142-.292 1.48-.316 3.141-.877 4.538-.61 2.118-1.572 4.188-1.523 6.475l.097.085c.098.023.159-.049.232-.121.11-.336.037-.65.06-1.035.037-.313.379-.108.525-.29.085-.516.036-1.058.256-1.563.207-1.048.548-2.035.621-3.142.195-.217.073-.638.402-.722-.231 2.66-1.06 5.127-.987 7.883.256.59 1.231.819.939 1.565-.512.494-1.231.53-1.938.578-.256-.036-.11-.325-.232-.47.025-.156-.06-.349.025-.457 0-.722.426-1.444-.025-2.057-.048-.013-.06.035-.085.06-.073 1.047-.341 1.985-.414 3.069-.147.42-.622.818-.317 1.324-.122.192-.354.12-.5.264-.024.554-.219 1.06-.463 1.53-.182.011-.268-.423-.439-.146.074.446-.146.771-.353 1.096-.377-.265-.377-.83-.438-1.24-.11-.108-.037-.288-.062-.433.183-1.505.33-3.141.561-4.622.402-2.973 1.329-5.633 2.133-8.438l-.037-.144c.158-.241.183-.542.268-.807.17-.542.244-1.12.5-1.625.11-.337.329-.686.353-1.011.147-.566.293-1.131.317-1.757-.17-.157-.475-.193-.67-.12-.049.553-.025 1.203-.183 1.733-.963 2.877-1.73 5.717-2.486 8.666-.487 1.264-.683 2.696-.963 4.02-.792.964-1.95 1.565-2.656 2.54-.268.253-.354.59-.56.842l-.318-.324v-1.324c.098-.338.402-.446.67-.602-.316-.446-.511-1.156-.17-1.65.622-.698 1.548-1.034 2.133-1.817.036-.18.292-.385.11-.553-.903.024-1.024 1.3-1.926 1.24.097-.145.182-.326.146-.494-.536-.397.036-1.047-.061-1.613.415-.446.049-1.035.207-1.565-.037-1.384.537-2.816.792-4.237.074-.782.988-1.372.585-2.203.354-1.913.865-3.79 1.487-5.573.926.242 1.925-.023 2.718-.433.292.024.536-.205.828-.265.317.012.549-.108.878-.024.06.29-.061.735.317.927.158.145.414.133.609.084.22-.385.573-.77.56-1.215-.048-.133-.23-.097-.353-.145-.22-.168-.512-.325-.524-.638.06-.674-.45-1.612.317-2.07.06-.144.146-.41-.086-.494-.243.097-.487-.144-.67.145-.56.818-.268 1.878-.268 2.829l-.085.084c-.232-.072-.548-.024-.792.084-.451.072-.878.24-1.316.097.036-1.457 1.035-2.516 1.291-3.877l-.121-.12c-1.365-.506-2.633.362-4.059.145l-.085-.084c0-.65-.22-1.216-.39-1.794.207-.94 1.414-.662 2.109-1.035.548-.662 1.291-1 1.644-1.734.05-.168.025-.384-.097-.517-.56.41-1.39.204-1.84.83-.585.29-1.353.133-1.865-.192-.121-.518.256-.89.61-1.252.207-.253.256-.626.646-.602.414-.156.975-.108 1.23-.553-.207-.29-.597-.253-.877-.398-.61-.048-1.194-.192-1.852-.18-.147-.132-.378-.048-.524-.193.012-.289.365-.144.5-.349.353.024.682-.289 1.084-.18.841-.23 1.743-.133 2.656-.193.403-.144.902-.168 1.17-.493l-.17-.145c-.914-.144-1.84-.265-2.779-.084-.182-.012-.377.024-.5.048-.023 0-.073.012-.084-.024-.488.24-1.073.229-1.548.457-.61.253-1.207.53-1.755.843-.037.252.232.385.34.578.135.18.428.108.586.288.293.037.61.012.829.205.231.024.463.157.609.35-.646.517-.963 1.227-1.34 1.877-.573.157-1.134-.036-1.646-.18-1.961-1-3.339.986-4.618 2.142-.5.71-1.304 1.24-1.256 2.13.025.205.293.29.232.53-.195.542-.33 1.12-.439 1.697-.17.794-.243 1.697 0 2.492.622-.12 1.121.012 1.694-.241.415-.132.78-.517.878-.95-.098-1.253 1.328-1.794 2.084-2.565.402-.433 1.096-.325 1.547-.722.073-.193.22-.349.17-.578-.182-.252-.462-.385-.754-.433.121-.072.353-.109.523-.06.72-.06 1.487-.253 2.255-.18l.085.324c.134.794-.11 1.577.56 2.107.646-.037 1.292-.24 1.902-.494.56-.036 1.17-.313 1.718-.06-.037 2.094-2.73 2.564-3.303 4.37-.316 2.166-1.876 3.827-3.095 5.633-.475.324-.902.758-1.17 1.215-.22.542-.597 1.156-1.12 1.553-.22.084-.464.337-.695.12-.208-.35-.585-.794-.354-1.155-.158-.217.049-.518-.06-.783.121-.553.145-1.083.085-1.673-.098-.325-.256-.65-.488-.903.073-1.276.621-2.359.878-3.574-.037-.434.487-1.023-.123-1.3-.292-.193-.548.096-.755.204-.097.421-.305.843-.244 1.3.11.18.305.169.439.29-.841 2.575-1.974 6.306.439 8.425.768.216 1.267-.518 1.67-1.011-.05-.157.145-.109.206-.193.196-.325.5-.638.878-.758.67-1.396 1.67-2.672 2.571-3.96l.061.06c.073.879-.317 1.637-.524 2.431-.329.53-.207 1.132-.438 1.698l-.122.06.06.06c-.256.614-.609 1.191-1.047 1.733-1.134 1.095-2.17 2.54-3.632 2.888-.488-.011-.158-.601-.293-.841.098-.362.061-.903.025-1.325-.208-.337-.549-.626-.963-.578-.463.338-.39.903-.646 1.3-.097-.144-.024-.36-.17-.493-.792-3.322-.183-6.885-.415-10.652l-.085-.145c-.244-.024-.45.12-.585.313 0 4.273-.536 8.534.914 12.542.536 1.228 1.925.325 2.864.434 1.365-1.012 2.62-2.36 3.595-3.672.012.217-.012.494-.085.723-.073.686-.22 1.287-.33 1.937-.231 1.132-.572 2.312-.73 3.515-.183.722-.11 1.48-.293 2.166 0 1.228-.134 2.336.121 3.527.147.314.464.446.793.47.609 3.49-1.195 6.428-1.73 9.678-.135 4.092-1.78 7.883-1.085 12.036-.22 1.072.17 2.142.121 3.214-.048.422-.414.794-.816.927-1.024-.277-2.023-.602-3.01-.963-.89-.06-2.023-.662-2.754.097-.11.3-.049.685.06.974.452.987 1.5 1.408 2.402 1.793.34.12.706.205 1.047.374 1.195.361 2.438.722 3.718.806 1.45.35 3.254.205 4.91.24.451-.228.939-.577 1.085-1.07.256-.795-.158-1.517-.56-2.143-.55-1.035-1.353-1.878-1.402-3.118-.366-.685.146-1.516-.439-2.106-.06-.072-.17-.132-.231 0 0 .614-.036 1.215.146 1.793-.22.446-.22 1.132 0 1.613.573 1.144 1.767 1.938 1.962 3.262.122.338-.183.422-.39.554-.5.18-.853-.18-1.255-.325-.183-.216-.536-.229-.67-.457-.085.156-.317.024-.463.024-.256.132-.11.42-.244.614-.305.036-.573-.048-.841-.12-.475-.133-.963-.302-1.377-.518.11-.145.304-.072.439-.169.195-.83-.695-1.324-.586-2.118-.633-2.215.245-4.538-.084-6.837-.512-.313-.074-.686-.147-1.132.11-.144-.122-.324.085-.433.244-2.395.707-4.863 1.524-7.162-.098-.193-.329-.157-.378-.325.159-1.613.78-3.057 1.17-4.585.036-.362.012-.747.232-1.048 1.425-.577.097-2.371 1.133-3.262l-.05-.06c-.218.12-.328.385-.498.578-.074.06-.183.24-.269.096-.268-.325-.11-.83-.024-1.192.463-.349.402-.962.938-1.24.073-.107.256.025.317-.143-.317-.638.524-.964.877-1.421h.086c.049.566.207 1.36-.378 1.685.353.806-.22 1.59-.524 2.311-.049.313-.268.699-.085.975.414-.036.816.157 1.194.29.268.348.682.36.963.697-.659 1.842-.61 3.864-1.048 5.801l.085.145c.231-.265.158-.65.292-.95.025-.097.135-.133.232-.12.207.276.232.625.292.962.256.758.451 1.54.622 2.335.597 1.746 1 3.587 2.389 4.971.134.145.304.288.475.253-.512-.818-.878-1.71-1.377-2.54-.695-1.432-1.11-2.985-1.609-4.501-.097-1.264-.987-2.709-.024-3.9.036-.35.207-.783-.147-1.048.147-1.203.805-2.202 1.256-3.285.097-.41.572-.217.694-.615.025-.433.244-.902-.024-1.3-.025-.228-.012-.565.268-.661.45-.18.89-.12 1.34-.205.744-.012 1.341-.578 1.585-1.24.06-.457.049-.915-.33-1.263-.389-.146-.584-.639-.694-1.012-.037-.349.378-.36.439-.674-.22-.77.45-1.673-.146-2.396.219-1.48.475-3.02.78-4.5.012-.518.329-1.012.292-1.53-.012-.168.22-.3.098-.433l.231-1.276c.183-.999.341-2.022.378-3.093z" transform="translate(-571 -1391) translate(148 1283) translate(423 108) translate(26 8)"/>
                    </g>
                </g>
            </g>
        </g>
    </g>
</svg>
