<svg xmlns="http://www.w3.org/2000/svg" width="138" height="86" viewBox="0 0 138 86">
    <g fill="none" fill-rule="evenodd" opacity=".5">
        <g>
            <g>
                <g>
                    <g>
                        <path fill="#000" fill-rule="nonzero" d="M3.567 32.107c-.02-.293 0-.468.04-.566l.272-.194.37-.078.352.117c.097.077.175.253.214.545.039.293.059.546.059.741 0 .215.019.332.078.37.038.04.136-.058.253-.272.117-.215.273-.488.429-.82.156-.33.273-.564.39-.681l.37-.312.37-.117.273.058c.078.04.195.215.312.546.117.312.254.838.41 1.56.156.72.273 1.091.35 1.15l.195-.059c.04-.078.195-.507.43-1.306.253-.78.565-1.813.935-3.06.37-1.248.643-1.97.8-2.145l.428-.35.39-.079c.156.02.254.117.312.332.058.214.058.37 0 .507-.058.136-.234.643-.526 1.54-.293.896-.722 2.241-1.306 4.054-.585 1.813-.956 2.769-1.112 2.846-.156.078-.35.117-.584.117-.234-.019-.41-.078-.527-.214-.117-.117-.214-.312-.312-.565-.097-.254-.214-.722-.39-1.423-.175-.702-.272-1.092-.331-1.131-.039-.059-.156.039-.331.292-.176.254-.41.741-.741 1.482-.332.74-.546 1.111-.702 1.15l-.429-.02-.331-.233c-.078-.098-.215-1.131-.37-3.1 0-.175 0-.39-.04-.682M11.287 34.914c-.078-.331-.117-.663-.117-.975 0-.312.078-.624.234-.935.156-.332.39-.566.721-.702.312-.137.624-.195.878-.176.272.04.506.137.701.332.195.195.332.41.41.643.078.234.117.487.117.76s-.059.468-.195.585c-.117.117-.293.195-.527.234-.234.039-.409.058-.545.02l-.312-.02-.098.117c0 .078.137.195.351.35.234.137.448.215.643.235l.546.039.41.136.195.332-.215.35c-.136.098-.35.176-.624.195-.273.02-.585-.019-.935-.097-.351-.078-.663-.214-.956-.37-.234-.195-.487-.527-.682-1.053m1.228-1.306c.273.058.449.078.527.039l.097-.195-.136-.234-.273-.098-.254.059-.078.175.117.254M16.2 27.935c-.059.585-.117.975-.176 1.17l-.273.37-.429-.039-.253-.35c-.02-.176-.02-.469 0-.917 0-.448.078-.721.214-.838l.449-.137.292.098.078.156c.059.078.078.253.098.487M19.104 34.017c.78-1.228 1.228-1.91 1.306-2.047l.195-.429.332-.292h.429l.35.331.117.43-.312.35c-.175.117-.409.449-.701 1.033-.293.566-.605 1.15-.917 1.774-.311.605-.545.995-.701 1.15l-.43.273-.467-.039c-.156-.058-.468-.584-.897-1.598-.448-1.014-.702-1.599-.799-1.755-.097-.136-.117-.311-.078-.545.039-.215.136-.37.273-.449l.41-.078.35.351c.098.195.195.488.312.877.098.39.215.702.351.956.117.253.214.39.273.409l.234-.136c.078-.176.195-.351.37-.566M22.418 34.914c-.078-.331-.117-.663-.117-.975 0-.312.078-.624.234-.935.156-.332.39-.566.721-.702.312-.137.624-.195.878-.176.273.04.507.137.701.332.195.195.332.41.43.643.077.234.116.487.116.76s-.058.468-.195.585c-.117.117-.292.195-.526.234-.234.039-.41.058-.546.02l-.312-.02-.097.117c0 .078.136.195.35.35.215.137.45.215.644.235l.546.039.41.136.194.332-.195.35c-.136.098-.35.176-.624.195-.272.02-.584-.019-.935-.097-.351-.078-.663-.214-.955-.37-.273-.195-.507-.527-.722-1.053m1.248-1.306c.273.058.448.078.526.039l.098-.195-.137-.234-.273-.098-.253.059-.078.175.117.254M30.255 35.48c-.702-2.126-1.13-3.49-1.306-4.056-.156-.565-.215-.916-.176-1.033l.215-.312.37-.02.39.371c.097.176.312.76.624 1.774s.526 1.618.585 1.833c.078.214.195.156.35-.176.156-.331.332-.624.566-.877.214-.253.448-.39.663-.429.214-.039.409-.058.584-.039.156.02.351.195.566.527.214.33.37.72.448 1.17.098.448.098.818 0 1.15-.097.33-.214.545-.39.643-.175.097-.41.156-.721.175-.312.02-.546-.02-.702-.078l-.39.078-.214.429-.137.37-.35.059c-.156-.02-.351-.215-.566-.566-.234-.35-.35-.682-.41-.994m1.892-.896l.02.33.214.196.35.117.293-.098.117-.292-.02-.41-.194-.467-.312-.234-.254.156c-.097.117-.156.35-.214.702M35.011 34.816c-.156-.35-.273-.662-.311-1.013-.059-.332-.04-.683.058-1.053.117-.37.312-.663.624-.877.312-.215.624-.332.916-.351.292-.02.565.058.819.214.253.156.429.37.565.605.137.234.234.507.293.78.058.292.019.506-.078.643-.117.136-.293.273-.527.35-.234.079-.429.137-.585.137l-.331.02-.078.156c.02.097.175.195.448.292.273.117.527.156.722.117.214-.02.409-.059.584-.078l.468.078.254.312-.156.429c-.137.136-.351.253-.624.312-.292.078-.624.097-1.014.078-.39-.02-.76-.098-1.091-.215-.312-.097-.644-.41-.956-.936m1.073-1.637c.292.02.487 0 .565-.039l.058-.234-.195-.214-.311-.04-.254.118-.058.195.195.214M40.43 30.567c.235-.195.488-.312.722-.351.253-.04.507-.04.76-.02.273.02.585.234.956.644.37.39.72 1.013 1.033 1.852.312.838.487 1.384.546 1.657.039.273.02.467-.098.584l-.448.137c-.176-.04-.37-.234-.585-.585-.215-.35-.351-.624-.39-.819-.039-.195-.195-.136-.448.195-.254.312-.585.585-1.014.76-.429.195-.74.293-.936.332-.195.02-.429-.04-.663-.195-.253-.156-.409-.35-.487-.585-.078-.234-.117-.585-.136-1.072-.02-.468.136-1.033.487-1.638.234-.39.468-.682.702-.896m-.273 2.183l-.02.526.234.37.488.079.545-.254c.176-.136.332-.37.468-.643.137-.292.195-.507.195-.663 0-.156 0-.331-.039-.546-.039-.214-.136-.331-.273-.35-.136-.02-.312 0-.526.097-.195.078-.429.292-.682.604-.215.332-.351.585-.39.78M44.875 32.555c.215-.955.449-1.618.702-1.988.254-.37.43-.624.527-.741.097-.117.272-.214.506-.312.254-.078.468-.117.663-.136.195-.02.468.175.8.584.33.39.565.722.701.995.137.273.254.643.332 1.091.078.449.097.741.058.839-.039.097-.156.175-.37.214-.215.039-.37.02-.507-.058-.137-.098-.254-.332-.37-.702-.117-.37-.273-.702-.43-.975-.175-.273-.33-.41-.448-.41-.117 0-.292.079-.526.254-.214.176-.351.468-.39.916-.02.449-.039.741-.039.897l-.058.39-.351.214-.507-.039-.293-.331c-.078-.195-.058-.429 0-.702M52.751 33.49l-.195-.447-.039-.351.117-.39c.078-.137.254-.37.546-.683.292-.331.526-.506.721-.584l.546-.078.41.273.058.487-.254.35-.409.235-.331.234-.098.214.098.176c.078.058.331.194.76.448.429.253.702.448.819.585.097.136.156.331.136.604-.02.273-.078.526-.214.76-.117.234-.293.43-.527.566-.214.136-.565.253-.974.312-.43.058-.76 0-.995-.176-.253-.175-.409-.37-.506-.565-.098-.195-.137-.39-.117-.585l.273-.507.428-.117.254.37.292.351c.137.059.312.059.527.02.214-.04.331-.098.35-.195l-.038-.214c-.059-.059-.351-.215-.839-.449-.448-.253-.721-.468-.799-.643M56.67 35.713c-.079-1.95-.176-3.08-.274-3.353-.097-.292-.136-.507-.136-.643l.117-.351.35-.214.41.02.293.214.136.214.04.136.272-.078c.175-.078.507-.117 1.033-.117.527 0 .994.078 1.365.234.39.156.663.351.877.585.195.215.312.468.37.702.059.253.059.468 0 .643-.058.176-.214.43-.487.722-.273.311-.663.565-1.15.74-.487.176-.936.273-1.365.312-.429.02-.662.078-.74.117-.059.059-.059.273-.02.644.059.37.117.78.195 1.228.078.448.097.76.078.916l-.195.312c-.097.039-.253.058-.487.058-.234 0-.41-.097-.488-.312-.097-.214-.156-.623-.175-1.228-.02-.604-.02-1.091-.02-1.5m1.56-1.365c.663 0 1.111-.04 1.364-.156.254-.098.43-.215.527-.351l.175-.39-.117-.429c-.078-.175-.273-.312-.546-.41-.272-.116-.545-.175-.818-.175-.273 0-.507.04-.722.117-.214.078-.331.137-.35.176-.04.039-.059.195-.059.467v.722c0 .214.02.331.059.41.058.058.214.058.487.019M62.771 35.07c-.117-.604-.253-1.014-.35-1.267-.118-.234-.137-.488-.079-.741.059-.253.156-.41.273-.468l.37-.039.332.117.273-.039c.097-.058.292-.234.565-.526.273-.293.526-.507.78-.644.253-.136.448-.175.585-.155l.39.233.195.37-.176.45-.41.253c-.175 0-.37.078-.643.234-.253.175-.467.409-.643.74-.175.312-.253.663-.253 1.034v.955c0 .273-.059.448-.156.565l-.449.176-.409-.059-.136-.273v-.41l-.059-.506M66.611 34.914c-.078-.331-.117-.663-.117-.975 0-.312.078-.624.234-.935.156-.332.39-.566.722-.702.312-.137.623-.195.877-.176.273.04.507.137.702.332.195.195.331.41.429.643.077.234.116.487.116.76s-.058.468-.175.585c-.117.117-.292.195-.526.234-.215.039-.41.058-.546.02l-.312-.02-.098.117c.02.078.137.195.37.35.235.137.45.215.644.235l.546.039.41.136.194.332-.195.35c-.156.098-.35.176-.623.195-.273.02-.585-.019-.936-.097-.351-.078-.663-.214-.936-.37-.331-.195-.565-.527-.78-1.053m1.248-1.306c.273.058.448.078.526.039l.098-.195-.137-.234-.273-.098-.253.059-.078.175.117.254M72.226 31.95c.253-.136.487-.214.72-.194.235.02.469.058.703.117.234.058.487.312.76.721.273.429.468 1.053.624 1.852.136.819.214 1.345.214 1.599 0 .253-.058.409-.195.506l-.429.04c-.156-.079-.292-.273-.428-.624-.137-.351-.215-.624-.215-.8-.02-.195-.156-.156-.429.098-.292.253-.624.429-1.052.526-.41.098-.722.156-.897.137l-.585-.273c-.195-.176-.312-.39-.35-.605-.04-.234-.02-.565.038-.994.059-.429.293-.897.721-1.403.293-.312.546-.546.8-.702m-.605 1.93l-.117.487.156.37.43.156.545-.136c.195-.097.37-.273.526-.507.156-.234.254-.41.293-.565l.039-.488-.195-.35h-.488c-.194.039-.428.195-.72.428-.235.234-.39.449-.469.605M78.64 32.867c-.118-1.91-.215-3.119-.293-3.626-.059-.507-.078-.819-.04-.955l.235-.273.41-.058c.136.019.272.156.37.37.097.234.175.702.194 1.423.02.721.078 1.95.156 3.684.078 1.735.137 2.73.176 2.925.039.214 0 .39-.117.565l-.429.273-.41-.215-.194-.526c-.02-.195-.02-.35-.04-.487l-.077-.195-.273.195c-.137.136-.312.234-.546.292-.234.059-.507.059-.838-.02-.332-.077-.605-.253-.8-.506-.194-.273-.292-.546-.292-.82 0-.272.098-.584.292-.935.195-.35.449-.585.76-.74.313-.157.605-.234.858-.254.254 0 .449 0 .566.039l.214.058.117-.214m-1.56 2.242c.196.039.39.058.527.058l.37-.253.098-.429-.234-.253-.487-.04-.468.196-.176.312.04.233.33.176M80.979 35.226c-.098-.721-.215-1.15-.351-1.306l-.117-.43.234-.292.37-.078c.136 0 .312.137.487.41.195.273.312.546.351.78.059.234.078.506.078.799 0 .292-.02.546-.078.78-.058.234-.156.35-.312.39l-.468-.078-.233-.312v-.663h.039zm-.02-3.334c.312.02.507-.02.585-.117l.195-.35v-.468l-.234-.332-.351-.078-.429.234-.195.488.137.35.292.273M82.772 34.485c.35-.838.682-1.404.955-1.696l.585-.585c.097-.097.273-.156.507-.195.234-.039.448-.039.624-.02.175.02.39.235.623.664.234.409.41.76.488 1.033.078.273.136.624.136 1.033 0 .429-.02.682-.078.76l-.37.137-.448-.137c-.098-.097-.176-.331-.215-.702-.039-.37-.117-.682-.234-.955-.117-.273-.214-.429-.331-.448-.117-.02-.293.02-.527.136-.233.117-.39.37-.487.76-.097.39-.156.663-.195.82l-.136.35-.351.137-.449-.117-.214-.37c-.02-.157.02-.371.117-.605M89.478 31.95l.253-.194.293-.098.312.273c.136.195.273.527.429.995.136.467.37 1.228.701 2.241.312 1.014.507 1.813.546 2.379.04.565.02 1.033-.097 1.384-.098.35-.234.604-.351.76-.137.156-.312.273-.527.331-.214.059-.448.078-.72.02-.254-.04-.586-.137-.956-.312-.39-.175-.702-.41-.936-.721-.234-.312-.331-.585-.273-.819.059-.234.156-.37.293-.429l.41-.02.253.293c.039.136.175.292.39.429.214.156.448.273.701.35.254.098.43.118.527.079l.195-.176c.019-.078.039-.234.039-.468 0-.233-.02-.584-.04-1.013-.019-.43-.136-.936-.33-1.482-.196-.546-.313-.858-.39-.916l-.215-.098-.332.215c-.156.156-.37.273-.623.35-.254.098-.527.118-.78.079-.254-.04-.488-.176-.682-.37-.195-.215-.293-.41-.293-.624 0-.215.02-.41.078-.644.059-.214.137-.448.273-.682.136-.234.312-.448.526-.604.215-.156.624-.312 1.19-.43l.136-.077m-1.072 1.676l-.137.215v.273l.254.234h.39l.37-.195.175-.254-.039-.331-.214-.273c-.117-.04-.292-.02-.546.097l-.253.234M97.237 37.838c.682.137 1.189.176 1.481.098.312-.078.546-.273.702-.585.156-.293.175-.683.097-1.131-.097-.468-.35-.975-.76-1.52-.41-.566-.877-1.014-1.384-1.365-.507-.351-.8-.565-.877-.663l-.117-.331.156-.312.448-.117c.195 0 .468.097.8.273.33.195.76.546 1.286 1.072.507.526.936 1.111 1.248 1.754.312.644.468 1.229.487 1.774.02.546-.058.917-.195 1.17-.156.234-.37.448-.702.643-.312.195-.76.312-1.306.351-.546.04-1.072-.02-1.598-.136-.507-.117-.858-.293-1.092-.546-.214-.234-.331-.487-.35-.74-.02-.254.019-.41.136-.469l.37.02.448.331c.137.176.39.312.722.43m-.878-6.902c.293.254.546.332.76.273.215-.058.371-.156.449-.312l.058-.487-.253-.41-.448-.117-.43.156-.272.215-.098.214c0 .078.059.234.234.468M101.915 32.692c.156-.156.39-.312.682-.449.293-.136.644-.175 1.053-.097.41.078.78.273 1.15.624.351.35.546.682.566 1.033.02.35-.04.643-.176.916-.136.273-.35.507-.663.721-.312.215-.584.332-.799.351-.234.02-.546 0-.955-.117-.41-.097-.721-.253-.916-.41-.195-.175-.332-.389-.41-.642-.078-.254-.058-.605.02-1.092.136-.41.292-.682.448-.838m1.287 2.027c.214.078.429.058.663-.039.234-.097.37-.253.409-.429l-.059-.507-.272-.253-.293.058-.253.137-.176.02-.195-.157-.331-.058-.234.234c-.02.136.02.312.117.604.214.176.41.312.624.39M109.148 32.926c.799-1.112 1.306-1.813 1.5-2.086.195-.273.332-.488.449-.624l.35-.273.41-.02.332.195.078.351c-.02.117-.117.293-.273.546-.156.234-.41.526-.76.877-.352.351-.741.8-1.131 1.365-.41.565-.917 1.423-1.501 2.573-.605 1.15-.975 1.813-1.111 1.989-.137.175-.332.35-.546.506-.215.156-.41.215-.605.176l-.312-.195.098-.41c.078-.175.37-.623.858-1.325.487-.721.76-1.15.818-1.306l.117-.37c0-.098-.117-.332-.37-.702-.253-.37-.546-.702-.858-.995-.312-.292-.507-.487-.585-.643l-.117-.39.137-.35.35-.176.488.156c.176.097.41.37.721.76.293.41.488.663.585.76l.195.195.176.137.214-.098c.04-.117.156-.331.293-.623M31.853 40.236s6.258-4.289 17.74-4.679c.76-.02 1.072.254 1.13.507.079.429-.701 1.15-2.397 1.19-7.369.155-12.242 1.559-15.77 3.001-1.736.702-.703-.02-.703-.02" transform="translate(-360 -1391) translate(148 1283) translate(212 108) translate(12 27)"/>
                        <path fill="#000" d="M113.339 7.427c2.008 0 3.743-1.56 3.743-3.704 0-2.124-1.716-3.684-3.743-3.684-2.047 0-3.763 1.56-3.763 3.684.02 2.145 1.735 3.704 3.763 3.704" transform="translate(-360 -1391) translate(148 1283) translate(212 108) translate(12 27)"/>
                        <path fill="#FFF" d="M110.317 3.723c0-1.754 1.326-3.08 3.022-3.08 1.676 0 3.002 1.326 3.002 3.08 0 1.774-1.326 3.1-3.002 3.1-1.696-.02-3.022-1.326-3.022-3.1" transform="translate(-360 -1391) translate(148 1283) translate(212 108) translate(12 27)"/>
                        <path fill="#000" d="M112.559 4.016h.74l1.131 1.852h.722l-1.209-1.872c.624-.078 1.111-.41 1.111-1.17 0-.838-.507-1.208-1.5-1.208h-1.619v4.27h.643V4.015h-.019z" transform="translate(-360 -1391) translate(148 1283) translate(212 108) translate(12 27)"/>
                        <path fill="#FFF" d="M112.559 3.47V2.144h.877c.449 0 .936.098.936.624 0 .643-.487.702-1.033.702h-.78z" transform="translate(-360 -1391) translate(148 1283) translate(212 108) translate(12 27)"/>
                        <path fill="#000" fill-rule="nonzero" d="M9.201 25.245L8.441 25.342 7.681 25.42 6.92 25.42 6.18 25.381 5.458 25.284 4.718 25.108 3.996 24.894 3.275 24.621 2.593 24.173 2.242 23.958 1.93 23.685 1.618 23.393 1.326 23.062 1.072 22.75 0.819 22.399 0.819 22.379 0.78 22.36 0.526 21.853 0.312 21.346 0.117 20.274 0.117 19.728 0.156 19.163 0.312 18.656 0.526 18.13 0.663 17.759 0.877 17.428 1.111 17.096 1.423 16.804 1.735 16.55 2.027 16.317 2.378 16.122 2.729 15.966 3.489 15.732 4.308 15.693 5.107 15.771 5.868 16.005 5.907 16.044 6.18 16.141 6.258 16.141 6.316 16.102 6.316 5.146 6.375 4.581 6.414 4.055 6.511 3.489 6.667 2.983 6.862 2.437 7.174 1.949 7.466 1.482 7.876 1.072 7.876 1.053 7.934 1.033 8.382 0.682 8.889 0.409 9.435 0.214 10 0.097 10.663 0.039 10.858 0.078 10.995 0.078 11.521 0.117 12.028 0.253 12.515 0.448 12.925 0.702 13.373 1.014 13.724 1.365 14.036 1.774 14.289 2.222 14.523 2.729 14.523 2.768 14.738 3.333 14.835 3.918 14.893 4.328 14.932 4.698 14.991 5.107 14.991 8.694 15.049 8.753 15.147 8.714 15.439 8.46 16.102 7.895 16.823 7.369 17.564 6.94 18.324 6.589 19.182 6.277 19.981 6.063 20.839 5.926 21.697 5.887 22.613 5.907 23.471 6.024 24.29 6.199 25.128 6.472 25.947 6.803 26.687 7.213 27.409 7.7 28.072 8.266 28.111 8.285 28.208 8.402 28.5 8.694 28.676 8.694 28.676 8.675 28.715 8.636 28.715 4.698 28.812 4.055 28.91 3.47 29.105 2.885 29.222 2.573 29.319 2.32 29.475 2.047 29.67 1.793 30.021 1.326 30.528 0.916 30.528 0.897 30.567 0.858 31.191 0.526 31.795 0.292 32.438 0.175 33.101 0.136 33.705 0.214 34.368 0.351 34.914 0.604 35.479 0.936 35.577 1.014 35.83 1.248 35.928 1.345 36.025 1.384 36.22 1.248 36.59 0.916 36.629 0.897 36.688 0.858 37.234 0.526 37.858 0.292 38.501 0.175 39.164 0.136 39.807 0.214 40.411 0.351 41.016 0.604 41.522 0.936 41.62 1.014 41.99 1.326 42.088 1.423 42.185 1.462 42.224 1.462 42.341 1.326 42.692 1.072 43.043 0.819 43.394 0.624 43.803 0.448 44.603 0.214 45.421 0.136 46.279 0.214 47.078 0.448 47.468 0.604 47.839 0.819 48.189 1.053 48.482 1.326 48.638 1.423 48.696 1.462 48.735 1.423 48.891 1.326 49.242 0.994 49.301 0.955 49.301 0.936 49.807 0.624 50.353 0.37 50.919 0.214 51.523 0.136 52.166 0.136 52.829 0.234 53.433 0.448 54.038 0.741 54.096 0.76 54.642 1.189 54.856 1.423 55.246 1.91 55.402 2.203 55.558 2.476 55.656 2.768 55.851 3.333 56.046 4.445 56.104 5.029 56.104 5.946 56.202 5.965 56.396 5.946 57.469 5.887 58.521 5.985 59.593 6.219 60.549 6.57 61.056 6.803 61.504 7.076 61.952 7.349 62.362 7.681 62.771 8.012 63.161 8.402 63.512 8.792 63.824 9.201 64.175 9.669 64.642 10.429 64.681 10.449 64.779 10.429 64.954 10.176 65.286 9.708 65.578 9.24 65.968 8.831 66.377 8.441 66.787 8.051 67.235 7.7 67.742 7.369 68.249 7.076 68.756 6.803 69.263 6.589 70.374 6.238 71.485 6.024 72.635 5.946 73.746 6.004 74.857 6.219 75.969 6.57 76.475 6.803 77.021 7.076 77.489 7.349 77.996 7.661 78.444 8.012 78.854 8.402 79.244 8.792 79.653 9.201 80.004 9.669 80.452 10.351 80.55 10.429 80.667 10.351 81.115 9.669 81.407 9.221 81.778 8.792 82.187 8.402 82.577 8.051 83.045 7.7 83.474 7.388 83.942 7.096 84.448 6.842 84.936 6.628 86.008 6.277 87.119 6.063 88.23 6.004 88.991 6.043 89.692 6.18 90.453 6.414 91.115 6.706 91.193 6.764 91.31 6.764 91.408 6.706 92.012 6.433 92.616 6.258 93.318 6.18 93.981 6.199 94.527 6.297 95.034 6.472 95.541 6.725 95.989 7.037 96.106 7.076 96.301 7.252 96.398 7.369 96.496 7.388 96.554 7.369 96.652 7.252 96.847 7.076 96.964 7.018 97.412 6.706 97.919 6.472 98.465 6.297 99.03 6.199 99.693 6.18 100.336 6.258 100.979 6.433 101.584 6.725 101.584 6.745 101.642 6.745 101.701 6.803 101.779 6.803 101.896 6.764 102.558 6.492 102.617 6.492 103.709 6.219 104.878 6.082 106.087 6.121 107.237 6.297 107.958 6.492 108.66 6.764 109.303 7.096 109.927 7.544 110.473 8.012 110.98 8.577 111.428 9.182 111.623 9.513 111.994 10.312 112.13 10.819 112.286 11.287 112.481 12.301 112.598 13.334 112.598 19.903 112.539 20.391 112.539 20.878 112.345 21.911 112.189 22.418 111.994 22.886 111.838 23.198 111.428 23.744 111.233 23.997 110.98 24.231 110.727 24.446 110.122 24.758 110.083 24.797 110.025 24.797 109.498 24.991 108.953 25.108 108.407 25.147 107.841 25.128 107.237 25.03 106.691 24.835 106.145 24.543 105.639 24.192 105.58 24.173 105.58 24.134 105.171 23.724 104.82 23.256 104.566 22.75 104.371 22.223 104.215 21.541 104.118 21.073 104.079 21.034 104.021 21.015 103.865 21.015 103.826 21.034 103.767 21.073 103.67 21.541 103.514 22.184 103.26 22.808 103.104 23.101 102.909 23.393 102.695 23.666 102.5 23.919 102.247 24.173 102.013 24.368 101.389 24.719 101.35 24.738 101.291 24.777 100.785 24.972 100.18 25.089 99.634 25.147 99.089 25.128 98.465 25.03 97.86 24.835 97.315 24.543 96.808 24.192 96.808 24.173 96.769 24.134 96.652 24.036 96.554 23.919 96.457 23.919 96.398 23.919 96.301 24.036 96.047 24.27 95.989 24.309 95.892 24.368 95.385 24.68 94.839 24.933 94.235 25.089 93.63 25.167 93.026 25.147 92.422 25.03 91.798 24.835 91.252 24.563 91.193 24.504 91.115 24.504 90.998 24.543 90.336 24.835 89.634 25.05 89.634 25.069 88.425 25.245 87.275 25.245 86.047 25.069 85.501 24.913 84.897 24.719 84.39 24.485 83.844 24.192 83.337 23.9 82.83 23.549 82.382 23.14 81.973 22.75 81.583 22.282 81.212 21.794 81.056 21.599 80.979 21.541 80.862 21.599 80.745 21.814 80.355 22.321 79.945 22.769 79.516 23.198 78.99 23.588 78.444 23.919 77.84 24.231 77.216 24.504 76.612 24.738 75.325 25.089 74 25.284 73.259 25.323 72.479 25.323 71.68 25.264 70.939 25.128 70.159 24.952 69.458 24.699 68.756 24.387 68.054 24.036 67.995 23.997 67.995 23.997 67.547 23.705 67.079 23.373 66.689 23.023 66.28 22.672 65.929 22.282 65.247 21.424 64.954 20.995 64.779 20.761 64.681 20.703 64.642 20.761 64.487 20.995 64.175 21.424 63.921 21.814 63.57 22.223 63.278 22.594 62.868 22.925 62.518 23.256 61.699 23.861 60.802 24.368 59.886 24.738 58.931 25.03 57.917 25.206 56.962 25.245 56.007 25.147 55.11 24.913 54.194 24.543 54.096 24.504 53.979 24.504 53.94 24.543 53.336 24.855 53.238 24.894 52.732 25.03 52.225 25.128 51.718 25.147 51.211 25.108 50.646 24.991 50.1 24.797 49.593 24.524 49.145 24.192 49.106 24.173 49.047 24.134 48.852 23.919 48.696 23.783 48.638 23.744 48.54 23.783 48.443 23.919 48.189 24.134 47.936 24.368 47.839 24.446 47.273 24.738 46.61 24.972 46.006 25.108 45.363 25.147 44.7 25.089 44.115 24.933 43.491 24.68 42.946 24.368 42.887 24.309 42.887 24.27 42.439 23.9 42.341 23.763 42.224 23.724 42.185 23.763 42.029 23.9 41.776 24.134 41.522 24.368 41.425 24.446 40.879 24.738 40.275 24.972 39.612 25.108 38.949 25.147 38.345 25.089 37.682 24.933 37.136 24.68 36.59 24.368 36.473 24.27 36.22 24.036 36.025 23.9 35.928 23.919 35.83 24.036 35.479 24.368 35.362 24.446 34.816 24.738 34.154 24.972 33.549 25.108 32.906 25.147 32.243 25.089 31.639 24.933 31.035 24.68 30.489 24.368 30.372 24.27 30.021 23.919 29.67 23.49 29.358 23.023 29.105 22.535 29.027 22.262 28.968 22.204 28.871 22.243 28.676 22.438 28.072 23.023 27.409 23.568 26.687 24.036 25.986 24.446 25.186 24.797 24.368 25.069 23.568 25.264 22.769 25.381 21.911 25.42 21.054 25.381 20.176 25.284 19.377 25.108 18.578 24.835 17.818 24.504 17.057 24.095 16.356 23.627 15.79 23.178 15.303 22.711 14.835 22.184 14.387 21.638 14.231 21.424 14.133 21.346 14.036 21.424 13.938 21.658 13.529 22.34 13.081 22.945 12.515 23.51 11.969 23.997 11.307 24.407 10.663 24.777 9.903 25.05z" transform="translate(-360 -1391) translate(148 1283) translate(212 108) translate(12 27)"/>
                        <path fill="#FFF" fill-rule="nonzero" d="M97.412 19.903L97.412 20.352 97.451 20.761 97.51 21.21 97.607 21.638 97.704 21.872 97.86 22.126 98.016 22.36 98.211 22.535 98.426 22.711 98.679 22.847 98.972 22.925 99.225 22.984 99.888 22.984 100.434 22.808 100.746 22.633 100.94 22.438 101.155 22.204 101.291 21.931 101.447 21.599 101.545 21.21 101.584 20.839 101.642 20.449 101.642 14.621 101.701 14.172 101.896 13.275 102.013 13.022 102.091 12.749 102.305 12.515 102.5 12.301 102.695 12.125 103.007 11.989 103.26 11.911 103.572 11.852 104.215 11.852 104.82 11.989 105.171 12.125 105.424 12.359 105.697 12.632 105.892 12.964 105.97 13.256 106.087 13.587 106.145 13.938 106.184 14.27 106.184 20.352 106.243 20.761 106.34 21.21 106.438 21.638 106.633 22.126 106.847 22.36 107.003 22.535 107.237 22.711 107.491 22.847 107.744 22.925 108.056 22.984 108.66 22.984 109.206 22.808 109.479 22.672 109.713 22.477 109.927 22.243 110.083 21.989 110.161 21.677 110.376 21.034 110.376 20.703 110.415 19.903 110.415 13.022 110.376 12.632 110.278 12.242 110.22 11.852 110.122 11.463 109.81 10.741 109.557 10.312 109.303 9.903 108.953 9.533 108.602 9.201 108.153 8.928 107.744 8.694 107.237 8.538 106.808 8.402 105.892 8.266 105.034 8.246 104.118 8.304 103.26 8.538 102.753 8.714 102.305 8.967 101.896 9.279 101.486 9.65 101.35 9.318 101.096 9.026 100.843 8.792 100.551 8.577 100.239 8.46 99.888 8.363 99.576 8.304 99.225 8.324 98.718 8.46 98.465 8.577 98.27 8.714 98.055 8.889 97.86 9.104 97.646 9.611 97.51 10 97.412 10.858zM91.408 21.502L91.72 22.087 91.915 22.34 92.168 22.574 92.422 22.75 92.714 22.886 93.065 22.964 93.377 23.023 93.728 22.984 94.079 22.906 94.39 22.808 94.683 22.633 94.897 22.418 95.034 22.184 95.19 21.931 95.287 21.658 95.443 21.249 95.541 20.352 95.541 10.936 95.443 10.098 95.326 9.669 95.229 9.396 95.092 9.143 94.936 8.928 94.683 8.714 94.488 8.577 94.235 8.46 93.728 8.324 93.182 8.324 92.616 8.499 92.363 8.636 91.915 8.967 91.759 9.162 91.564 9.396 91.408 9.65 91.115 9.299 90.745 9.006 90.394 8.753 89.985 8.538 89.536 8.363 89.127 8.266 88.679 8.188 88.23 8.149 87.275 8.227 86.32 8.421 85.404 8.753 84.994 8.967 84.585 9.201 84.195 9.494 83.844 9.806 83.474 10.137 83.181 10.488 82.869 10.878 82.382 11.677 82.187 12.125 81.973 12.632 81.817 13.159 81.661 13.685 81.563 14.231 81.466 14.796 81.407 15.322 81.407 15.868 81.466 16.434 81.524 16.979 81.622 17.506 81.778 18.052 81.914 18.558 82.129 19.085 82.382 19.592 82.636 20.079 82.928 20.527 83.181 20.898 83.474 21.21 83.786 21.521 84.137 21.814 84.507 22.087 84.858 22.321 85.657 22.711 86.515 22.964 87.373 23.101 88.269 23.101 89.127 22.964 89.79 22.75 90.394 22.438 90.96 22.009 91.193 21.775z" transform="translate(-360 -1391) translate(148 1283) translate(212 108) translate(12 27)"/>
                        <path fill="#000" fill-rule="nonzero" d="M85.813 15.595L85.852 16.141 85.969 16.687 86.105 17.194 86.32 17.701 86.456 17.954 86.671 18.188 86.866 18.402 87.061 18.578 87.314 18.753 87.626 18.87 88.172 19.026 88.776 19.046 89.341 18.929 89.634 18.812 89.907 18.675 90.141 18.519 90.55 18.091 90.843 17.584 90.998 17.33 91.115 17.057 91.154 16.765 91.252 16.473 91.252 16.18 91.31 15.868 91.31 15.186 91.252 14.855 91.154 14.523 91.115 14.231 90.96 13.919 90.843 13.607 90.648 13.334 90.511 13.061 90.238 12.847 89.985 12.652 89.692 12.476 89.38 12.34 88.776 12.203 88.133 12.242 87.821 12.32 87.47 12.437 87.217 12.574 86.963 12.788 86.71 13.022 86.515 13.256 86.203 13.802 86.047 14.075 85.969 14.387 85.911 14.66 85.813 15.283z" transform="translate(-360 -1391) translate(148 1283) translate(212 108) translate(12 27)"/>
                        <path fill="#FFF" fill-rule="nonzero" d="M69.925 16.843L77.528 16.843 78.035 16.804 78.6 16.745 78.893 16.648 79.146 16.473 79.302 16.336 79.516 16.024 79.536 15.868 79.653 14.971 79.594 14.348 79.516 13.704 79.341 13.1 79.146 12.476 78.854 11.891 78.542 11.326 78.191 10.819 77.781 10.312 77.333 9.864 76.826 9.474 76.261 9.104 75.715 8.792 75.15 8.577 74.545 8.363 73.902 8.227 73.298 8.129 72.635 8.09 71.992 8.129 71.387 8.227 70.725 8.363 70.12 8.577 69.555 8.792 69.009 9.104 68.463 9.474 67.956 9.864 67.489 10.312 67.079 10.819 66.748 11.326 66.436 11.891 66.144 12.476 65.929 13.1 65.773 13.704 65.578 14.893 65.539 15.517 65.539 16.122 65.578 16.726 65.676 17.33 65.832 17.915 66.027 18.5 66.28 19.046 66.592 19.592 67.294 20.586 67.703 21.034 68.151 21.463 68.6 21.833 69.107 22.184 69.672 22.457 70.218 22.711 70.764 22.886 71.387 23.023 71.992 23.12 72.596 23.198 73.805 23.12 74.857 22.984 75.93 22.711 76.885 22.321 77.333 22.087 77.781 21.794 78.132 21.541 78.483 21.249 78.737 20.917 78.99 20.547 79.146 20.235 79.244 19.903 79.244 19.533 79.205 19.202 79.146 18.968 79.049 18.753 78.951 18.558 78.795 18.402 78.6 18.266 78.386 18.149 77.937 18.032 77.528 18.013 77.08 18.11 76.066 18.539 75.559 18.792 75.052 18.987 73.941 19.28 73.337 19.358 72.733 19.338 72.128 19.241 71.543 19.046 71.231 18.89 70.939 18.714 70.666 18.5 70.471 18.227 70.276 17.935 70.12 17.623 70.023 17.291 69.964 16.94z" transform="translate(-360 -1391) translate(148 1283) translate(212 108) translate(12 27)"/>
                        <path fill="#000" fill-rule="nonzero" d="M69.867 14.075L75.462 14.075 75.423 13.704 75.325 13.373 75.208 13.022 75.013 12.71 74.799 12.437 74.545 12.184 74.253 11.989 73.961 11.813 73.61 11.677 73.298 11.56 72.538 11.502 72.187 11.541 71.875 11.638 71.524 11.774 71.231 11.95 70.978 12.145 70.725 12.359 70.335 12.847 70.003 13.431 69.964 13.743z" transform="translate(-360 -1391) translate(148 1283) translate(212 108) translate(12 27)"/>
                        <path fill="#FFF" fill-rule="nonzero" d="M53.94 9.24L53.94 4.659 53.882 4.269 53.784 3.899 53.628 3.509 53.531 3.236 53.375 2.983 53.18 2.749 52.926 2.573 52.634 2.437 52.322 2.339 51.971 2.3 51.659 2.3 51.114 2.398 50.802 2.495 50.568 2.671 50.353 2.846 50.197 3.08 50.061 3.333 49.944 3.606 49.807 4.055 49.71 4.932 49.71 20.352 49.749 20.761 49.807 21.21 49.905 21.638 50.002 21.872 50.139 22.126 50.314 22.36 50.509 22.535 50.704 22.711 50.977 22.847 51.464 22.964 52.03 22.984 52.478 22.886 52.829 22.711 53.141 22.496 53.375 22.223 53.628 21.931 53.784 21.638 54.194 21.989 54.642 22.321 55.09 22.594 55.597 22.808 56.104 22.964 56.611 23.042 57.176 23.081 57.664 23.062 58.58 22.886 59.496 22.613 60.295 22.184 60.705 21.95 61.406 21.385 61.757 21.054 62.05 20.703 62.323 20.352 62.615 19.962 63.024 19.143 63.161 18.714 63.375 18.207 63.512 17.662 63.629 17.135 63.726 16.609 63.765 16.063 63.765 14.991 63.687 14.445 63.629 13.919 63.473 13.373 63.317 12.847 63.161 12.359 62.927 11.852 62.654 11.385 62.42 10.917 62.108 10.449 61.816 10.117 61.504 9.786 61.192 9.474 60.841 9.182 60.451 8.928 60.1 8.714 59.243 8.363 58.385 8.149 57.469 8.051 56.572 8.09 55.714 8.285 55.188 8.46 54.798 8.655 54.35 8.928z" transform="translate(-360 -1391) translate(148 1283) translate(212 108) translate(12 27)"/>
                        <path fill="#000" fill-rule="nonzero" d="M53.882 15.556L53.882 16.141 53.999 16.726 54.194 17.252 54.389 17.779 54.583 18.052 54.798 18.305 54.993 18.519 55.246 18.714 55.5 18.851 55.792 18.968 56.396 19.104 57.02 19.085 57.625 18.929 57.917 18.792 58.17 18.617 58.365 18.402 58.638 18.188 58.775 17.935 58.989 17.662 59.126 17.369 59.321 16.765 59.438 16.141 59.496 15.81 59.496 15.498 59.438 15.147 59.438 14.816 59.321 14.484 59.301 14.133 59.126 13.841 59.028 13.529 58.833 13.236 58.697 12.964 58.482 12.71 58.229 12.515 57.917 12.32 57.664 12.184 57.371 12.067 56.708 11.989 56.065 12.047 55.714 12.164 55.402 12.301 55.11 12.496 54.856 12.71 54.642 12.983 54.447 13.275 54.194 13.821 54.096 14.075 53.999 14.387 53.94 14.66 53.882 14.971z" transform="translate(-360 -1391) translate(148 1283) translate(212 108) translate(12 27)"/>
                        <path fill="#FFF" fill-rule="nonzero" d="M42.985 4.737L43.043 4.971 43.043 5.224 43.082 5.458 43.296 5.907 43.452 6.121 43.55 6.316 43.745 6.492 44.115 6.803 44.544 7.018 45.012 7.154 45.519 7.174 46.026 7.115 46.474 6.979 46.883 6.706 47.234 6.375 47.527 5.985 47.741 5.517 47.839 5.068 47.878 4.815 47.839 4.562 47.839 4.328 47.741 3.879 47.527 3.45 47.39 3.256 47.078 2.905 46.669 2.632 46.26 2.437 45.811 2.32 45.363 2.3 44.914 2.359 44.466 2.495 44.057 2.749 43.686 3.022 43.394 3.392 43.199 3.821 43.082 4.055 43.043 4.269 43.043 4.484zM47.527 19.903L47.527 10.527 47.429 10.078 47.332 9.669 47.234 9.416 47.078 9.143 46.883 8.928 46.669 8.714 46.474 8.577 46.182 8.46 45.616 8.324 45.012 8.363 44.466 8.538 44.193 8.694 43.998 8.889 43.803 9.143 43.647 9.416 43.452 10.078 43.335 10.449 43.335 10.819 43.296 11.365 43.296 19.903 43.335 20.352 43.335 20.781 43.55 21.638 43.647 21.892 43.803 22.165 43.998 22.418 44.193 22.633 44.505 22.769 44.758 22.906 45.051 22.984 45.421 22.984 45.714 22.984 46.006 22.906 46.318 22.808 46.61 22.633 46.825 22.457 47.02 22.243 47.176 21.989 47.429 21.327 47.468 20.898 47.527 20.488zM36.941 5.38L36.941 20.352 37 20.781 37.039 21.21 37.195 21.638 37.292 21.911 37.429 22.165 37.585 22.418 37.858 22.633 38.091 22.769 38.403 22.886 38.696 22.984 39.008 22.984 39.32 22.984 39.671 22.906 39.963 22.808 40.216 22.633 40.47 22.457 40.626 22.243 40.782 21.989 40.918 21.736 41.016 21.327 41.133 20.898 41.172 20.488 41.172 4.952 41.133 4.503 40.918 3.665 40.821 3.372 40.665 3.119 40.47 2.885 40.275 2.671 40.021 2.495 39.709 2.398 39.417 2.32 39.105 2.3 38.813 2.3 38.462 2.359 38.15 2.476 37.897 2.632 37.643 2.846 37.487 3.061 37.351 3.295 37.195 3.567 37 4.406 36.941 4.854zM30.84 5.38L30.84 19.903 30.879 20.352 30.879 20.781 31.093 21.638 31.191 21.911 31.347 22.165 31.541 22.418 31.736 22.633 32.029 22.769 32.302 22.886 32.594 22.984 32.945 22.984 33.257 22.984 33.549 22.906 33.861 22.808 34.154 22.633 34.368 22.457 34.563 22.243 34.719 21.989 34.816 21.736 34.933 21.327 35.031 20.898 35.07 20.488 35.07 4.503 34.875 3.665 34.758 3.372 34.622 3.119 34.427 2.885 34.212 2.671 33.9 2.495 33.666 2.398 33.354 2.32 33.062 2.3 32.692 2.3 32.399 2.359 32.087 2.476 31.795 2.632 31.6 2.846 31.405 3.061 31.23 3.295 31.152 3.567 30.976 3.996 30.937 4.406 30.84 5.302zM14.699 15.634L14.699 16.55 14.738 16.979 14.932 17.876 15.049 18.305 15.186 18.714 15.4 19.143 15.595 19.553 15.79 19.923 16.044 20.293 16.356 20.664 16.648 21.015 16.96 21.327 17.623 21.911 18.032 22.184 18.422 22.418 19.28 22.808 20.196 23.081 21.151 23.237 22.106 23.276 23.023 23.178 23.978 22.964 24.835 22.633 25.693 22.165 26.103 21.892 26.434 21.599 26.804 21.288 27.097 20.956 27.448 20.586 27.701 20.215 28.208 19.397 28.403 18.968 28.559 18.539 28.715 18.071 28.91 17.155 28.968 16.667 29.066 15.732 29.066 15.244 28.968 14.348 28.773 13.412 28.461 12.535 28.072 11.677 27.818 11.287 27.565 10.897 27.253 10.527 26.648 9.845 25.83 9.221 25.44 8.967 24.972 8.753 24.075 8.363 23.101 8.149 22.106 8.012 21.151 8.051 20.137 8.227 19.182 8.538 18.324 8.967 17.857 9.221 17.467 9.513 17.116 9.845 16.765 10.176 16.395 10.546 16.102 10.936 15.79 11.365 15.556 11.774 15.342 12.223 15.147 12.691 14.991 13.159 14.796 14.133 14.699 15.127z" transform="translate(-360 -1391) translate(148 1283) translate(212 108) translate(12 27)"/>
                        <path fill="#000" fill-rule="nonzero" d="M19.085 15.595L19.085 16.141 19.182 16.706 19.319 17.233 19.533 17.759 19.689 18.052 19.884 18.305 20.137 18.539 20.391 18.753 20.703 18.929 20.995 19.065 21.716 19.182 22.36 19.143 22.652 19.065 23.023 18.929 23.276 18.753 23.568 18.539 23.763 18.305 24.173 17.779 24.29 17.486 24.426 17.194 24.524 16.901 24.621 16.278 24.621 15.966 24.68 15.673 24.68 15.342 24.621 15.03 24.582 14.699 24.524 14.387 24.426 14.075 24.29 13.802 24.173 13.509 24.017 13.236 23.822 12.983 23.627 12.769 23.373 12.535 23.081 12.379 22.808 12.242 22.516 12.145 21.853 12.047 21.249 12.125 20.956 12.223 20.644 12.359 20.391 12.535 19.884 12.964 19.728 13.236 19.533 13.49 19.436 13.763 19.28 14.075 19.241 14.348 19.124 14.66 19.085 14.971z" transform="translate(-360 -1391) translate(148 1283) translate(212 108) translate(12 27)"/>
                        <path fill="#FFF" fill-rule="nonzero" d="M8.48 15.088L8.48 15.615 8.441 16.122 8.441 16.667 8.343 17.194 8.285 17.584 8.188 17.993 8.032 18.305 7.934 18.441 7.778 18.578 7.642 18.714 7.427 18.792 7.135 18.831 6.823 18.831 6.511 18.753 5.809 18.402 5.458 18.188 5.01 17.993 4.659 17.876 4.308 17.818 3.899 17.857 3.548 17.954 3.197 18.13 2.885 18.363 2.632 18.656 2.476 18.968 2.281 19.553 2.281 20.41 2.378 20.703 2.476 20.976 2.632 21.249 2.944 21.677 3.333 22.067 3.743 22.399 4.191 22.672 4.737 22.886 5.302 23.042 5.868 23.178 6.414 23.256 7.583 23.276 8.733 23.12 9.299 22.984 9.845 22.769 10.371 22.496 10.8 22.165 11.209 21.775 11.599 21.327 11.911 20.859 12.164 20.352 12.476 19.416 12.632 18.929 12.671 18.441 12.769 17.954 12.827 17.467 12.827 4.893 12.73 4.269 12.671 3.879 12.515 3.489 12.437 3.217 12.262 3.022 12.125 2.807 11.969 2.671 11.774 2.495 11.365 2.3 10.858 2.203 10.605 2.203 10.312 2.222 9.806 2.378 9.533 2.495 9.338 2.671 9.143 2.885 8.928 3.1 8.733 3.606 8.538 4.367 8.48 4.757z" transform="translate(-360 -1391) translate(148 1283) translate(212 108) translate(12 27)"/>
                    </g>
                </g>
            </g>
        </g>
    </g>
</svg>
