<svg xmlns="http://www.w3.org/2000/svg" width="700" height="1436" viewBox="0 0 700 1436">
    <g fill="none" fill-rule="evenodd" stroke-dasharray="1 17" stroke-linecap="round" stroke-opacity=".14">
        <g stroke="#21272E" stroke-width="2">
            <g>
                <path d="M136 0c105.958 209.333 205.572 343.667 298.84 403 139.904 89 272.193 412 262.676 612-6.345 133.333-83.517 273-231.516 419" transform="translate(-331 -2891) translate(332 2892)"/>
                <path d="M119 0c105.958 209.333 205.572 343.667 298.84 403 139.904 89 272.193 412 262.676 612-6.345 133.333-83.517 273-231.516 419" transform="translate(-331 -2891) translate(332 2892)"/>
                <path d="M99 0c105.958 209.333 205.572 343.667 298.84 403 139.904 89 272.193 412 262.676 612-6.345 133.333-83.517 273-231.516 419" transform="translate(-331 -2891) translate(332 2892)"/>
                <path d="M80 0c105.958 209.333 205.572 343.667 298.84 403 139.904 89 272.193 412 262.676 612-6.345 133.333-83.517 273-231.516 419" transform="translate(-331 -2891) translate(332 2892)"/>
                <path d="M61 0c105.958 209.333 205.572 343.667 298.84 403 139.904 89 272.193 412 262.676 612-6.345 133.333-83.517 273-231.516 419" transform="translate(-331 -2891) translate(332 2892)"/>
                <path d="M41 0c105.958 209.333 205.572 343.667 298.84 403 139.904 89 272.193 412 262.676 612-6.345 133.333-83.517 273-231.516 419" transform="translate(-331 -2891) translate(332 2892)"/>
                <path d="M21 0c105.958 209.333 205.572 343.667 298.84 403 139.904 89 272.193 412 262.676 612-6.345 133.333-83.517 273-231.516 419" transform="translate(-331 -2891) translate(332 2892)"/>
                <path d="M0 0c105.958 209.333 205.572 343.667 298.84 403 139.904 89 272.193 412 262.676 612-6.345 133.333-83.517 273-231.516 419" transform="translate(-331 -2891) translate(332 2892)"/>
            </g>
        </g>
    </g>
</svg>
