<svg xmlns="http://www.w3.org/2000/svg" width="371" height="761" viewBox="0 0 371 761">
    <g fill="none" fill-rule="evenodd" stroke-dasharray="1 17" stroke-linecap="round" stroke-opacity=".14">
        <g stroke="#21272E" stroke-width="2">
            <g>
                <path d="M232 0C84.965 161.333 8.035 293 1.21 395c-6.824 102 15.2 223.333 66.074 364" transform="translate(-323 -4420) translate(324 4421)"/>
                <path d="M256 0C108.965 161.333 32.035 293 25.21 395c-6.824 102 15.2 223.333 66.074 364" transform="translate(-323 -4420) translate(324 4421)"/>
                <path d="M276 0C128.965 161.333 52.035 293 45.21 395c-6.824 102 15.2 223.333 66.074 364" transform="translate(-323 -4420) translate(324 4421)"/>
                <path d="M295 0C147.965 161.333 71.035 293 64.21 395c-6.824 102 15.2 223.333 66.074 364" transform="translate(-323 -4420) translate(324 4421)"/>
                <path d="M313 0C165.965 161.333 89.035 293 82.21 395c-6.824 102 15.2 223.333 66.074 364" transform="translate(-323 -4420) translate(324 4421)"/>
                <path d="M332 0C184.965 161.333 108.035 293 101.21 395c-6.824 102 15.2 223.333 66.074 364" transform="translate(-323 -4420) translate(324 4421)"/>
                <path d="M352 0C204.965 161.333 128.035 293 121.21 395c-6.824 102 15.2 223.333 66.074 364" transform="translate(-323 -4420) translate(324 4421)"/>
                <path d="M369 0C221.965 161.333 145.035 293 138.21 395c-6.824 102 15.2 223.333 66.074 364" transform="translate(-323 -4420) translate(324 4421)"/>
            </g>
        </g>
    </g>
</svg>
