<svg xmlns="http://www.w3.org/2000/svg" width="960" height="1518" viewBox="0 0 960 1518">
    <g fill="none" fill-rule="evenodd" stroke-dasharray="1 17" stroke-linecap="round" stroke-opacity=".14">
        <g stroke="#21272E" stroke-width="2">
            <g>
                <path d="M844 0c-29.785 205.312-122.244 366.913-277.376 484.802-232.697 176.834-459.81 363.602-507.28 460.96-47.47 97.357-80.979 187.76 67.017 570.238" transform="translate(-220 -803) translate(221 804)"/>
                <path d="M825 0c-29.785 205.312-122.244 366.913-277.376 484.802-232.697 176.834-459.81 363.602-507.28 460.96-47.47 97.357-80.979 187.76 67.017 570.238" transform="translate(-220 -803) translate(221 804)"/>
                <path d="M864 0c-29.785 205.312-122.244 366.913-277.376 484.802-232.697 176.834-459.81 363.602-507.28 460.96-47.47 97.357-80.979 187.76 67.017 570.238" transform="translate(-220 -803) translate(221 804)"/>
                <path d="M883 0c-29.785 205.312-122.244 366.913-277.376 484.802-232.697 176.834-459.81 363.602-507.28 460.96-47.47 97.357-80.979 187.76 67.017 570.238" transform="translate(-220 -803) translate(221 804)"/>
                <path d="M902 0c-29.785 205.312-122.244 366.913-277.376 484.802-232.697 176.834-459.81 363.602-507.28 460.96-47.47 97.357-80.979 187.76 67.017 570.238" transform="translate(-220 -803) translate(221 804)"/>
                <path d="M921 0c-29.785 205.312-122.244 366.913-277.376 484.802-232.697 176.834-459.81 363.602-507.28 460.96-47.47 97.357-80.979 187.76 67.017 570.238" transform="translate(-220 -803) translate(221 804)"/>
                <path d="M941 0c-29.785 205.312-122.244 366.913-277.376 484.802-232.697 176.834-459.81 363.602-507.28 460.96-47.47 97.357-80.979 187.76 67.017 570.238" transform="translate(-220 -803) translate(221 804)"/>
                <path d="M958 0c-29.785 205.312-122.244 366.913-277.376 484.802-232.697 176.834-459.81 363.602-507.28 460.96-47.47 97.357-80.979 187.76 67.017 570.238" transform="translate(-220 -803) translate(221 804)"/>
            </g>
        </g>
    </g>
</svg>
