<svg xmlns="http://www.w3.org/2000/svg" width="600" height="789" viewBox="0 0 600 789">
    <g fill="none" fill-rule="evenodd" stroke-dasharray="1 17" stroke-linecap="round" stroke-opacity=".14">
        <g stroke="#21272E" stroke-width="2">
            <g>
                <path d="M62.864 0c-10.046 190.379 67.511 321.546 232.67 393.5 165.16 71.954 237.524 203.121 217.092 393.5" transform="translate(-587 -6) translate(588 7)"/>
                <path d="M42.864 0c-10.046 190.379 67.511 321.546 232.67 393.5 165.16 71.954 237.524 203.121 217.092 393.5" transform="translate(-587 -6) translate(588 7)"/>
                <path d="M21.864 0c-10.046 190.379 67.511 321.546 232.67 393.5 165.16 71.954 237.524 203.121 217.092 393.5" transform="translate(-587 -6) translate(588 7)"/>
                <path d="M.864 0c-10.046 190.379 67.511 321.546 232.67 393.5 165.16 71.954 237.524 203.121 217.092 393.5" transform="translate(-587 -6) translate(588 7)"/>
                <path d="M83.864 0c-10.046 190.379 67.511 321.546 232.67 393.5 165.16 71.954 237.524 203.121 217.092 393.5" transform="translate(-587 -6) translate(588 7)"/>
                <path d="M103.864 0c-10.046 190.379 67.511 321.546 232.67 393.5 165.16 71.954 237.524 203.121 217.092 393.5" transform="translate(-587 -6) translate(588 7)"/>
                <path d="M124.864 0c-10.046 190.379 67.511 321.546 232.67 393.5 165.16 71.954 237.524 203.121 217.092 393.5" transform="translate(-587 -6) translate(588 7)"/>
                <path d="M144.864 0c-10.046 190.379 67.511 321.546 232.67 393.5 165.16 71.954 237.524 203.121 217.092 393.5" transform="translate(-587 -6) translate(588 7)"/>
            </g>
        </g>
    </g>
</svg>
