<svg xmlns="http://www.w3.org/2000/svg" width="120" height="48" viewBox="0 0 120 48">
    <g fill="none" fill-rule="evenodd">
        <g fill="#FFF" fill-rule="nonzero">
            <g>
                <g>
                    <g>
                        <path d="M39.65 9.876H38.2v-1.75h1.503V4.951h2.104v3.173h2.678v1.751h-2.678v4.98c0 2.216 1.558 2.517 2.377 2.517.164 0 .274 0 .52-.055v1.888c-.164.027-.41.054-.738.054-1.421 0-4.263-.465-4.263-4.185V9.876h-.055zM47.902 3.639h.054c.602 0 1.066.492 1.066 1.067 0 .602-.492 1.094-1.093 1.067h-.055c-.573 0-1.065-.493-1.065-1.067.027-.575.492-1.067 1.093-1.067zM46.891 8.016H49.022V19.178H46.891zM52.301 8.016h2.077v1.532c0 .465-.055.848-.055.848h.055c.41-.957 1.776-2.626 4.235-2.626 2.624 0 3.826 1.422 3.826 4.268v7.14h-2.131v-6.675c0-1.56-.301-2.79-2.105-2.79-2.186 0-3.716 1.805-3.716 4.103v5.362h-2.131V8.016H52.3zM64.215 8.016h2.268l2.705 7.551c.192.63.41 1.532.41 1.532h.055s.164-.903.382-1.532l2.706-7.551h2.24l-4.126 11.162h-2.46l-4.18-11.162zM78.124 3.611h.054c.602 0 1.094.493 1.094 1.095S78.78 5.8 78.178 5.8h-.054c-.601 0-1.093-.492-1.093-1.094 0-.602.492-1.095 1.093-1.095zM77.085 8.016H79.216V19.178H77.085zM87.77 7.77c3.333 0 6.011 2.462 6.011 5.827 0 3.393-2.678 5.882-5.984 5.882-3.334 0-6.012-2.462-6.012-5.882 0-3.392 2.678-5.827 5.985-5.827zm.027 9.822c2.104 0 3.826-1.67 3.826-4.022 0-2.326-1.75-3.967-3.826-3.967-2.104 0-3.825 1.641-3.825 3.967 0 2.353 1.721 4.022 3.825 4.022z" transform="translate(-63 -5228) translate(0 5180) translate(63 48) translate(13 10)"/>
                        <g transform="translate(-63 -5228) translate(0 5180) translate(63 48) translate(13 10)">
                            <path d="M10.302 11.244c.519 0 .929-.41.929-.93V7.66c0-3.146 2.568-5.718 5.71-5.718 3.143 0 5.74 2.572 5.74 5.718v2.627c0 .52.41.93.928.93.52 0 .93-.41.93-.93V7.66c0-4.185-3.389-7.578-7.57-7.578C12.79.082 9.4 3.475 9.4 7.66v2.627c-.027.52.41.957.902.957zM16.97 17.92c-.52 0-.93.41-.93.93v9.138c0 .52.41.93.93.93.518 0 .928-.41.928-.93V18.85c0-.52-.41-.93-.929-.93zM18.335 12.831h-2.732c-.41 0-.738.438-.574.82.328.767 1.066 1.287 1.94 1.287.875 0 1.612-.52 1.94-1.286.137-.383-.164-.82-.574-.82zM7.077 19.178c2.296 0 4.154-1.86 4.154-4.158 0-.52-.41-.93-.93-.93-.518 0-.928.41-.928.93 0 1.258-1.039 2.298-2.296 2.298s-2.295-1.04-2.295-2.298v-3.256c0-2.024-1.64-3.639-3.634-3.639-.52 0-.93.41-.93.93s.41.93.93.93c.983 0 1.776.794 1.776 1.78v3.255c0 2.298 1.858 4.158 4.153 4.158z"/>
                            <path d="M13.39 16.142c-.52 0-.93.41-.93.93v3.912c0 1.778-1.448 3.228-3.224 3.228-1.776 0-3.224-1.45-3.224-3.228 0-.52-.41-.93-.93-.93-.519 0-.929.41-.929.93 0 2.818 2.296 5.116 5.11 5.116 2.815 0 5.11-2.298 5.11-5.116v-3.912c-.054-.52-.464-.93-.983-.93zM32.763 8.125c-2.022 0-3.634 1.642-3.634 3.64v3.255c0 1.258-1.038 2.298-2.295 2.298s-2.296-1.04-2.296-2.298c0-.52-.41-.93-.929-.93-.519 0-.929.41-.929.93 0 2.298 1.858 4.158 4.154 4.158 2.295 0 4.153-1.86 4.153-4.158v-3.256c0-.985.793-1.778 1.776-1.778.52 0 .93-.41.93-.93s-.41-.93-.93-.93z"/>
                            <path d="M28.72 20.026c-.52 0-.93.41-.93.93 0 1.779-1.448 3.229-3.224 3.229-1.776 0-3.225-1.45-3.225-3.228v-3.913c0-.52-.41-.93-.929-.93-.519 0-.929.41-.929.93v3.913c0 2.818 2.295 5.116 5.11 5.116 2.815 0 5.11-2.298 5.11-5.116-.055-.493-.465-.93-.984-.93z"/>
                            <circle cx="20.385" cy="11.244" r="1"/>
                            <circle cx="13.39" cy="11.244" r="1"/>
                            <path d="M4.782 15.02v-3.256c0-2.024-1.64-3.639-3.634-3.639-.52 0-.93.41-.93.93s.41.93.93.93c.983 0 1.776.794 1.776 1.78v3.255"/>
                        </g>
                    </g>
                </g>
            </g>
        </g>
    </g>
</svg>
