<svg xmlns="http://www.w3.org/2000/svg" width="77" height="31" viewBox="0 0 77 31">
    <defs>
        <linearGradient id="84a54eiz2b" x1="1.028%" x2="100.131%" y1="50.091%" y2="50.091%">
            <stop offset="0%" stop-color="#FF254C"/>
            <stop offset="100%" stop-color="#FF2B44"/>
        </linearGradient>
        <linearGradient id="ful7dbpiec" x1=".463%" x2="98.839%" y1="49.379%" y2="49.379%">
            <stop offset="0%" stop-color="#FF254C"/>
            <stop offset="100%" stop-color="#FF2B44"/>
        </linearGradient>
        <linearGradient id="pz1qz4swdd" x1="49.942%" x2="49.942%" y1="99.933%" y2="-.009%">
            <stop offset="0%" stop-color="#FF254C"/>
            <stop offset="100%" stop-color="#FF2B44"/>
        </linearGradient>
        <linearGradient id="w3ey4ylmge" x1="49.585%" x2="49.585%" y1="100.009%" y2=".007%">
            <stop offset="0%" stop-color="#FF254C"/>
            <stop offset="100%" stop-color="#FF2B44"/>
        </linearGradient>
        <linearGradient id="q5ufav83xf" x1="49.929%" x2="49.929%" y1="100.182%" y2=".534%">
            <stop offset="0%" stop-color="#FF254C"/>
            <stop offset="100%" stop-color="#FF2B44"/>
        </linearGradient>
        <linearGradient id="4wge0zc7xg" x1="50.026%" x2="50.026%" y1="100.013%" y2="-.094%">
            <stop offset="0%" stop-color="#FF254C"/>
            <stop offset="100%" stop-color="#FF2B44"/>
        </linearGradient>
        <linearGradient id="02duls6yzh" x1="49.533%" x2="49.533%" y1="99.757%" y2="-.116%">
            <stop offset="0%" stop-color="#FF254C"/>
            <stop offset="100%" stop-color="#FF2B44"/>
        </linearGradient>
        <linearGradient id="l00mrzbuai" x1="49.869%" x2="49.869%" y1="100.013%" y2="-.094%">
            <stop offset="0%" stop-color="#FF254C"/>
            <stop offset="100%" stop-color="#FF2B44"/>
        </linearGradient>
        <linearGradient id="5c33js23ij" x1="49.611%" x2="49.611%" y1="100.032%" y2=".159%">
            <stop offset="0%" stop-color="#FF254C"/>
            <stop offset="100%" stop-color="#FF2B44"/>
        </linearGradient>
        <linearGradient id="tlwgj9vm1k" x1="49.987%" x2="49.987%" y1="99.829%" y2="-.621%">
            <stop offset="0%" stop-color="#FF254C"/>
            <stop offset="100%" stop-color="#FF2B44"/>
        </linearGradient>
        <linearGradient id="xmxcgprm0l" x1="49.719%" x2="49.719%" y1="99.829%" y2="-.621%">
            <stop offset="0%" stop-color="#FF254C"/>
            <stop offset="100%" stop-color="#FF2B44"/>
        </linearGradient>
        <linearGradient id="ofwdhio60m" x1="49.914%" x2="49.914%" y1="99.861%" y2="-.151%">
            <stop offset="0%" stop-color="#FF254C"/>
            <stop offset="100%" stop-color="#FF2B44"/>
        </linearGradient>
        <filter id="ubq90wt57a" width="105%" height="109.2%" x="-2.6%" y="-4.7%" filterUnits="objectBoundingBox">
            <feOffset dy="4" in="SourceAlpha" result="shadowOffsetOuter1"/>
            <feGaussianBlur in="shadowOffsetOuter1" result="shadowBlurOuter1" stdDeviation="3.5"/>
            <feColorMatrix in="shadowBlurOuter1" result="shadowMatrixOuter1" values="0 0 0 0 0 0 0 0 0 0 0 0 0 0 0 0 0 0 0.07 0"/>
            <feMerge>
                <feMergeNode in="shadowMatrixOuter1"/>
                <feMergeNode in="SourceGraphic"/>
            </feMerge>
        </filter>
    </defs>
    <g fill="none" fill-rule="evenodd">
        <g fill-rule="nonzero">
            <g>
                <g>
                    <g filter="url(#ubq90wt57a)" transform="translate(-690 -1686) translate(533 1597) translate(-25 46) translate(173)">
                        <g>
                            <g>
                                <g>
                                    <path fill="#21272E" d="M24.872 6.167h-.909V5.073h.943V3.092h1.32v1.981h1.68v1.094h-1.68v3.109c0 1.383.977 1.571 1.491 1.571.103 0 .172 0 .326-.034v1.179c-.103.017-.257.034-.463.034-.891 0-2.674-.29-2.674-2.614V6.167h-.034z" transform="translate(0 34) translate(9.758 9.05) translate(8.155 6.244)"/>
                                    <path fill="url(#84a54eiz2b)" d="M30.049 2.272h.034c.377 0 .668.307.668.666 0 .376-.308.683-.685.666h-.035c-.36 0-.668-.307-.668-.666.017-.359.308-.666.686-.666z" transform="translate(0 34) translate(9.758 9.05) translate(8.155 6.244)"/>
                                    <path fill="#21272E" d="M29.414 5.005H30.751V11.975H29.414zM32.808 5.005h1.303v.957c0 .29-.034.53-.034.53h.034c.257-.599 1.114-1.64 2.657-1.64 1.645 0 2.4.888 2.4 2.664v4.459H37.83V7.807c0-.974-.189-1.743-1.32-1.743-1.371 0-2.331 1.128-2.331 2.563v3.348h-1.337v-6.97h-.035zM40.282 5.005h1.423l1.697 4.715c.12.393.257.957.257.957h.034s.103-.564.24-.957l1.697-4.715h1.406l-2.589 6.97h-1.542l-2.623-6.97z" transform="translate(0 34) translate(9.758 9.05) translate(8.155 6.244)"/>
                                    <path fill="url(#ful7dbpiec)" d="M49.007 2.255h.034c.377 0 .686.307.686.683 0 .376-.309.683-.686.683h-.034c-.377 0-.686-.307-.686-.683 0-.376.309-.683.686-.683z" transform="translate(0 34) translate(9.758 9.05) translate(8.155 6.244)"/>
                                    <path fill="#21272E" d="M48.355 5.005H49.692V11.975H48.355zM55.058 4.851c2.09 0 3.77 1.538 3.77 3.639 0 2.118-1.68 3.673-3.753 3.673-2.091 0-3.771-1.538-3.771-3.673 0-2.118 1.68-3.639 3.754-3.639zm.017 6.133c1.32 0 2.4-1.042 2.4-2.511 0-1.452-1.097-2.477-2.4-2.477-1.32 0-2.4 1.025-2.4 2.477 0 1.469 1.08 2.511 2.4 2.511z" transform="translate(0 34) translate(9.758 9.05) translate(8.155 6.244)"/>
                                    <g transform="translate(0 34) translate(9.758 9.05) translate(8.155 6.244)">
                                        <path fill="url(#pz1qz4swdd)" d="M6.462 7.02c.326 0 .583-.255.583-.58V4.783c0-1.964 1.611-3.57 3.583-3.57 1.97 0 3.6 1.606 3.6 3.57v1.64c0 .325.256.58.582.58.326 0 .583-.255.583-.58v-1.64c0-2.614-2.126-4.732-4.748-4.732-2.623 0-4.748 2.118-4.748 4.732v1.64c-.018.325.257.598.565.598z"/>
                                        <path fill="url(#w3ey4ylmge)" d="M10.645 11.189c-.326 0-.583.256-.583.58v5.706c0 .325.257.581.583.581.325 0 .583-.256.583-.58V11.77c0-.325-.258-.581-.583-.581z"/>
                                        <path fill="url(#q5ufav83xf)" d="M11.502 8.012H9.788c-.257 0-.463.273-.36.512.205.478.668.803 1.217.803.548 0 1.011-.325 1.217-.803.085-.239-.103-.512-.36-.512z"/>
                                        <path fill="url(#4wge0zc7xg)" d="M4.44 11.975c1.44 0 2.605-1.162 2.605-2.597 0-.324-.257-.58-.583-.58-.325 0-.583.256-.583.58 0 .786-.65 1.435-1.44 1.435-.788 0-1.44-.649-1.44-1.435V7.345C3 6.081 1.972 5.073.72 5.073c-.325 0-.582.257-.582.581 0 .325.257.581.583.581.617 0 1.114.495 1.114 1.11v2.033c0 1.435 1.166 2.597 2.606 2.597z"/>
                                        <path fill="url(#02duls6yzh)" d="M8.4 10.079c-.326 0-.584.256-.584.58v2.443c0 1.11-.908 2.016-2.022 2.016-1.114 0-2.023-.905-2.023-2.016 0-.324-.257-.58-.583-.58-.325 0-.583.256-.583.58 0 1.76 1.44 3.195 3.206 3.195 1.765 0 3.205-1.435 3.205-3.195V10.66c-.034-.324-.291-.58-.617-.58z"/>
                                        <path fill="url(#l00mrzbuai)" d="M20.552 5.073c-1.268 0-2.28 1.025-2.28 2.272v2.033c0 .786-.65 1.435-1.44 1.435-.788 0-1.44-.649-1.44-1.435 0-.324-.256-.58-.582-.58-.326 0-.583.256-.583.58 0 1.435 1.166 2.597 2.606 2.597s2.605-1.162 2.605-2.597V7.345c0-.615.497-1.11 1.114-1.11.326 0 .583-.256.583-.58 0-.325-.257-.582-.583-.582z"/>
                                        <path fill="url(#5c33js23ij)" d="M18.015 12.504c-.325 0-.582.257-.582.581 0 1.11-.909 2.016-2.023 2.016s-2.023-.906-2.023-2.016v-2.443c0-.324-.257-.58-.583-.58-.325 0-.582.256-.582.58v2.443c0 1.76 1.44 3.195 3.205 3.195 1.766 0 3.206-1.435 3.206-3.195-.035-.307-.292-.58-.618-.58z"/>
                                        <circle cx="12.787" cy="7.021" r="1" fill="url(#tlwgj9vm1k)"/>
                                        <circle cx="8.399" cy="7.021" r="1" fill="url(#xmxcgprm0l)"/>
                                        <path fill="url(#ofwdhio60m)" d="M3 9.378V7.345C3 6.081 1.97 5.073.72 5.073c-.326 0-.583.257-.583.581 0 .325.257.581.583.581.617 0 1.114.495 1.114 1.11v2.033"/>
                                    </g>
                                </g>
                            </g>
                        </g>
                    </g>
                </g>
            </g>
        </g>
    </g>
</svg>
