<svg xmlns="http://www.w3.org/2000/svg" width="84" height="34" viewBox="0 0 84 34">
    <defs>
        <linearGradient id="c1xzhhx6fa" x1="1.028%" x2="100.131%" y1="50.091%" y2="50.091%">
            <stop offset="0%" stop-color="#FF254C"/>
            <stop offset="100%" stop-color="#FF2B44"/>
        </linearGradient>
        <linearGradient id="81c67tmqmb" x1=".463%" x2="98.839%" y1="49.379%" y2="49.379%">
            <stop offset="0%" stop-color="#FF254C"/>
            <stop offset="100%" stop-color="#FF2B44"/>
        </linearGradient>
        <linearGradient id="etf5pyrqzc" x1="49.942%" x2="49.942%" y1="99.933%" y2="-.009%">
            <stop offset="0%" stop-color="#FF254C"/>
            <stop offset="100%" stop-color="#FF2B44"/>
        </linearGradient>
        <linearGradient id="0929wtn6fd" x1="49.585%" x2="49.585%" y1="100.009%" y2=".007%">
            <stop offset="0%" stop-color="#FF254C"/>
            <stop offset="100%" stop-color="#FF2B44"/>
        </linearGradient>
        <linearGradient id="3dvd13gnxe" x1="49.929%" x2="49.929%" y1="100.182%" y2=".534%">
            <stop offset="0%" stop-color="#FF254C"/>
            <stop offset="100%" stop-color="#FF2B44"/>
        </linearGradient>
        <linearGradient id="5ynvtitgwf" x1="50.026%" x2="50.026%" y1="100.013%" y2="-.094%">
            <stop offset="0%" stop-color="#FF254C"/>
            <stop offset="100%" stop-color="#FF2B44"/>
        </linearGradient>
        <linearGradient id="17ig8zf0rg" x1="49.533%" x2="49.533%" y1="99.757%" y2="-.116%">
            <stop offset="0%" stop-color="#FF254C"/>
            <stop offset="100%" stop-color="#FF2B44"/>
        </linearGradient>
        <linearGradient id="ke2gy6nzxh" x1="49.869%" x2="49.869%" y1="100.013%" y2="-.094%">
            <stop offset="0%" stop-color="#FF254C"/>
            <stop offset="100%" stop-color="#FF2B44"/>
        </linearGradient>
        <linearGradient id="8tn18eyb9i" x1="49.611%" x2="49.611%" y1="100.032%" y2=".159%">
            <stop offset="0%" stop-color="#FF254C"/>
            <stop offset="100%" stop-color="#FF2B44"/>
        </linearGradient>
        <linearGradient id="8nht8gkcjj" x1="49.987%" x2="49.987%" y1="99.829%" y2="-.621%">
            <stop offset="0%" stop-color="#FF254C"/>
            <stop offset="100%" stop-color="#FF2B44"/>
        </linearGradient>
        <linearGradient id="t3mtpthick" x1="49.719%" x2="49.719%" y1="99.829%" y2="-.621%">
            <stop offset="0%" stop-color="#FF254C"/>
            <stop offset="100%" stop-color="#FF2B44"/>
        </linearGradient>
        <linearGradient id="p6272dy8ql" x1="49.914%" x2="49.914%" y1="99.861%" y2="-.151%">
            <stop offset="0%" stop-color="#FF254C"/>
            <stop offset="100%" stop-color="#FF2B44"/>
        </linearGradient>
    </defs>
    <g fill="none" fill-rule="evenodd">
        <g fill-rule="nonzero">
            <g>
                <g>
                    <g>
                        <g>
                            <path fill="#21272E" d="M27.451 6.806H26.45V5.6h1.04V3.413h1.457V5.6H30.8v1.206h-1.854v3.432c0 1.527 1.078 1.734 1.646 1.734.113 0 .19 0 .36-.037v1.3c-.114.02-.284.038-.511.038-.984 0-2.952-.32-2.952-2.884V6.806h-.038z" transform="translate(-158 -656) translate(148 609) translate(0 37.526) translate(10.77 9.99) translate(9 6.891)"/>
                            <path fill="url(#c1xzhhx6fa)" d="M33.165 2.508h.038c.416 0 .738.339.738.735 0 .415-.34.754-.757.735h-.038c-.397 0-.738-.34-.738-.735.02-.396.34-.735.757-.735z" transform="translate(-158 -656) translate(148 609) translate(0 37.526) translate(10.77 9.99) translate(9 6.891)"/>
                            <path fill="#21272E" d="M32.465 5.524H33.941V13.216000000000001H32.465zM36.21 5.524h1.439V6.58c0 .32-.038.585-.038.585h.038c.284-.66 1.23-1.81 2.932-1.81 1.816 0 2.649.98 2.649 2.94v4.922h-1.476v-4.6c0-1.075-.208-1.924-1.457-1.924-1.513 0-2.573 1.245-2.573 2.828v3.696H36.25V5.524h-.038zM44.46 5.524h1.57l1.873 5.204c.132.434.284 1.056.284 1.056h.037s.114-.622.265-1.056l1.873-5.204h1.552l-2.857 7.693h-1.703L44.46 5.524z" transform="translate(-158 -656) translate(148 609) translate(0 37.526) translate(10.77 9.99) translate(9 6.891)"/>
                            <path fill="url(#81c67tmqmb)" d="M54.09 2.489h.037c.416 0 .757.34.757.754 0 .415-.34.754-.757.754h-.038c-.416 0-.756-.34-.756-.754 0-.415.34-.754.756-.754z" transform="translate(-158 -656) translate(148 609) translate(0 37.526) translate(10.77 9.99) translate(9 6.891)"/>
                            <path fill="#21272E" d="M53.37 5.524H54.846V13.216000000000001H53.37zM60.768 5.355c2.308 0 4.162 1.696 4.162 4.015 0 2.338-1.854 4.054-4.143 4.054-2.309 0-4.163-1.697-4.163-4.054 0-2.337 1.854-4.015 4.144-4.015zm.019 6.768c1.456 0 2.648-1.15 2.648-2.771 0-1.603-1.21-2.734-2.648-2.734-1.457 0-2.649 1.131-2.649 2.734 0 1.621 1.192 2.771 2.649 2.771z" transform="translate(-158 -656) translate(148 609) translate(0 37.526) translate(10.77 9.99) translate(9 6.891)"/>
                            <g transform="translate(-158 -656) translate(148 609) translate(0 37.526) translate(10.77 9.99) translate(9 6.891)">
                                <path fill="url(#etf5pyrqzc)" d="M7.132 7.749c.36 0 .644-.283.644-.641V5.279c0-2.168 1.778-3.94 3.954-3.94 2.175 0 3.973 1.772 3.973 3.94v1.81c0 .358.284.641.643.641.36 0 .643-.283.643-.64V5.28c0-2.886-2.346-5.223-5.24-5.223-2.895 0-5.24 2.337-5.24 5.222v1.81c-.02.358.283.66.623.66z"/>
                                <path fill="url(#0929wtn6fd)" d="M11.749 12.35c-.36 0-.644.282-.644.64v6.298c0 .358.284.64.644.64.36 0 .643-.282.643-.64V12.99c0-.358-.284-.64-.643-.64z"/>
                                <path fill="url(#3dvd13gnxe)" d="M12.695 8.843h-1.892c-.284 0-.511.301-.398.565.227.528.738.886 1.344.886.605 0 1.116-.358 1.343-.886.095-.264-.114-.565-.397-.565z"/>
                                <path fill="url(#5ynvtitgwf)" d="M4.9 13.217c1.59 0 2.876-1.282 2.876-2.866 0-.358-.284-.641-.644-.641-.359 0-.643.283-.643.64 0 .868-.719 1.585-1.589 1.585s-1.59-.717-1.59-1.584V8.107C3.31 6.712 2.177 5.6.796 5.6c-.36 0-.644.282-.644.64 0 .359.284.642.644.642.68 0 1.23.546 1.23 1.225v2.244c0 1.584 1.286 2.866 2.875 2.866z"/>
                                <path fill="url(#17ig8zf0rg)" d="M9.27 11.124c-.36 0-.643.283-.643.64v2.697c0 1.226-1.003 2.225-2.232 2.225-1.23 0-2.233-1-2.233-2.225 0-.358-.284-.641-.643-.641-.36 0-.643.283-.643.641 0 1.942 1.589 3.526 3.538 3.526 1.948 0 3.537-1.584 3.537-3.526v-2.696c-.037-.358-.321-.641-.68-.641z"/>
                                <path fill="url(#ke2gy6nzxh)" d="M22.684 5.6c-1.4 0-2.516 1.13-2.516 2.507v2.244c0 .867-.72 1.584-1.59 1.584-.87 0-1.589-.717-1.589-1.584 0-.358-.284-.641-.643-.641-.36 0-.643.283-.643.64 0 1.585 1.286 2.867 2.875 2.867 1.59 0 2.876-1.282 2.876-2.866V8.107c0-.679.549-1.225 1.23-1.225.36 0 .643-.283.643-.641 0-.359-.284-.641-.643-.641z"/>
                                <path fill="url(#8tn18eyb9i)" d="M19.884 13.801c-.36 0-.643.283-.643.641 0 1.226-1.003 2.225-2.233 2.225-1.23 0-2.232-1-2.232-2.225v-2.696c0-.358-.284-.641-.644-.641-.359 0-.643.283-.643.641v2.696c0 1.942 1.59 3.526 3.538 3.526 1.949 0 3.538-1.584 3.538-3.526-.038-.34-.322-.64-.681-.64z"/>
                                <circle cx="14.114" cy="7.749" r="1" fill="url(#8nht8gkcjj)"/>
                                <circle cx="9.27" cy="7.749" r="1" fill="url(#t3mtpthick)"/>
                                <path fill="url(#p6272dy8ql)" d="M3.31 10.35V8.108C3.31 6.712 2.177 5.6.796 5.6c-.36 0-.644.282-.644.64 0 .359.284.642.644.642.68 0 1.23.546 1.23 1.225v2.244"/>
                            </g>
                        </g>
                    </g>
                </g>
            </g>
        </g>
    </g>
</svg>
